<svg width="126" height="125" viewBox="0 0 126 125" fill="none" xmlns="http://www.w3.org/2000/svg">
<path d="M54.3598 4.80443C59.5092 1.83144 65.8535 1.83144 71.0029 4.80443L108.486 26.4456C113.636 29.4186 116.808 34.9129 116.808 40.8589V84.1411C116.808 90.0871 113.636 95.5814 108.486 98.5544L71.0029 120.196C65.8535 123.169 59.5092 123.169 54.3598 120.196L16.8763 98.5544C11.7269 95.5814 8.55475 90.0871 8.55475 84.1411V40.8589C8.55475 34.9129 11.7269 29.4186 16.8763 26.4456L54.3598 4.80443Z" fill="#0E0C15" stroke="url(#paint0_linear_30_147)"/>
<path d="M33.8147 80.1338H91.4007V84.0887C91.4007 84.9714 91.0797 85.8179 90.5083 86.4421C89.9369 87.0662 89.1619 87.4168 88.3538 87.4168H36.8616C36.0535 87.4168 35.2786 87.0662 34.7072 86.4421C34.1358 85.8179 33.8147 84.9714 33.8147 84.0887V80.1338Z" fill="#91BEFF"/>
<path d="M40.1574 44.406H85.2106C85.884 44.406 86.5298 44.6982 87.0059 45.2183C87.4821 45.7384 87.7496 46.4439 87.7496 47.1794V80.1334H37.6184V47.1794C37.6184 46.4439 37.8859 45.7384 38.362 45.2183C38.8382 44.6982 39.484 44.406 40.1574 44.406Z" fill="#3D47A3"/>
<path d="M85.2102 47.1794V77.3655H40.157V47.1794H85.2102Z" fill="#E2E7F3"/>
<path d="M54.8882 80.1335V82.075C54.8882 82.6104 55.0829 83.124 55.4296 83.5026C55.7762 83.8813 56.2464 84.094 56.7366 84.094H68.4772C68.9675 84.094 69.4376 83.8813 69.7843 83.5026C70.1309 83.124 70.3257 82.6104 70.3257 82.075V80.1335H54.8882Z" fill="#336CBD"/>
<path d="M40.1584 47.1797H85.2116V50.8739H40.1584V47.1797Z" fill="#C5D0F3"/>
<path d="M52.4764 69.772H55.9448V72.7451H52.4764V69.772Z" fill="#A5B8F3"/>
<path d="M60.9882 72.7449H47.4296C46.7562 72.7449 46.1104 73.0371 45.6342 73.5572C45.158 74.0773 44.8905 74.7827 44.8905 75.5183V77.3599H63.5273V75.5183C63.5273 74.7827 63.2597 74.0773 62.7836 73.5572C62.3074 73.0371 61.6616 72.7449 60.9882 72.7449Z" fill="#C5D0F3"/>
<path d="M62.2259 60.248H46.1841C45.3428 60.248 44.6607 60.9931 44.6607 61.9121V66.6824C44.6607 67.6015 45.3428 68.3465 46.1841 68.3465H62.2259C63.0673 68.3465 63.7494 67.6015 63.7494 66.6824V61.9121C63.7494 60.9931 63.0673 60.248 62.2259 60.248Z" fill="#A5B8F3"/>
<path d="M60.8912 58.5837H47.5256C46.9646 58.5837 46.5099 59.0804 46.5099 59.6931V68.9009C46.5099 69.5136 46.9646 70.0103 47.5256 70.0103H60.8912C61.4521 70.0103 61.9068 69.5136 61.9068 68.9009V59.6931C61.9068 59.0804 61.4521 58.5837 60.8912 58.5837Z" fill="#C5D0F3"/>
<path d="M60.3832 60.248V68.3465H48.0332V60.248H60.3832Z" fill="#E2E7F3"/>
<path d="M51.487 66.7434C51.2837 66.7434 51.0887 66.6558 50.9449 66.4997C50.8011 66.3437 50.7204 66.1321 50.7204 65.9114V62.6831C50.7204 62.4624 50.8011 62.2508 50.9449 62.0948C51.0887 61.9387 51.2837 61.8511 51.487 61.8511C51.6903 61.8511 51.8853 61.9387 52.029 62.0948C52.1728 62.2508 52.2536 62.4624 52.2536 62.6831V65.9114C52.2536 66.1321 52.1728 66.3437 52.029 66.4997C51.8853 66.6558 51.6903 66.7434 51.487 66.7434Z" fill="white"/>
<path d="M56.9355 66.7434C56.7321 66.7434 56.5371 66.6558 56.3934 66.4997C56.2496 66.3437 56.1689 66.1321 56.1689 65.9114V62.6831C56.1689 62.4624 56.2496 62.2508 56.3934 62.0948C56.5371 61.9387 56.7321 61.8511 56.9355 61.8511C57.1388 61.8511 57.3338 61.9387 57.4775 62.0948C57.6213 62.2508 57.7021 62.4624 57.7021 62.6831V65.9114C57.7021 66.1321 57.6213 66.3437 57.4775 66.4997C57.3338 66.6558 57.1388 66.7434 56.9355 66.7434Z" fill="white"/>
<path d="M91.3237 40.0241V51.7113C91.3237 52.3586 91.0882 52.9794 90.6692 53.4371C90.2502 53.8948 89.6819 54.1519 89.0893 54.1519H72.4686L67.4971 58.9999V54.1797H64.6381C64.0459 54.1782 63.4784 53.9206 63.0596 53.4632C62.6409 53.0058 62.4051 52.3859 62.4037 51.7391V40.0241C62.4037 39.3762 62.639 38.7549 63.0579 38.2963C63.4767 37.8377 64.045 37.5793 64.6381 37.5779H89.1096C89.6995 37.5837 90.2634 37.8442 90.6782 38.3025C91.093 38.7608 91.325 39.3796 91.3237 40.0241Z" fill="#938EFF"/>
<path d="M67.2838 63.6206H71.1787V67.8751H67.2838V63.6206Z" fill="#C5D0F3"/>
<path d="M72.7829 63.6206H76.6778V67.8751H72.7829V63.6206Z" fill="#C5D0F3"/>
<path d="M78.2839 63.6206H82.1788V67.8751H78.2839V63.6206Z" fill="#C5D0F3"/>
<path d="M67.284 69.5225H71.1789V73.7769H67.284V69.5225Z" fill="#C5D0F3"/>
<path d="M72.7829 69.5225H76.6778V73.7769H72.7829V69.5225Z" fill="#C5D0F3"/>
<path d="M78.2839 69.5225H82.1788V73.7769H78.2839V69.5225Z" fill="#C5D0F3"/>
<path d="M42.833 49.6485C43.1491 49.6485 43.4053 49.3704 43.4053 49.0273C43.4053 48.6841 43.1491 48.406 42.833 48.406C42.5168 48.406 42.2606 48.6841 42.2606 49.0273C42.2606 49.3704 42.5168 49.6485 42.833 49.6485Z" fill="#E2E7F3"/>
<path d="M45.6868 49.6485C46.0029 49.6485 46.2592 49.3704 46.2592 49.0273C46.2592 48.6841 46.0029 48.406 45.6868 48.406C45.3706 48.406 45.1144 48.6841 45.1144 49.0273C45.1144 49.3704 45.3706 49.6485 45.6868 49.6485Z" fill="#E2E7F3"/>
<path d="M48.5403 49.6485C48.8564 49.6485 49.1127 49.3704 49.1127 49.0273C49.1127 48.6841 48.8564 48.406 48.5403 48.406C48.2242 48.406 47.9679 48.6841 47.9679 49.0273C47.9679 49.3704 48.2242 49.6485 48.5403 49.6485Z" fill="#E2E7F3"/>
<path d="M91.4023 79.8564H88V54.4295H89.0867C89.7462 54.4281 90.3784 54.1412 90.8447 53.6318C91.3111 53.1224 91.5737 52.432 91.575 51.7116V40.0243C91.575 39.3029 91.313 38.611 90.8465 38.1004C90.38 37.5898 89.7471 37.3023 89.0867 37.3008H64.6406C63.9802 37.3023 63.3473 37.5898 62.8808 38.1004C62.4143 38.611 62.1523 39.3029 62.1523 40.0243V44.129H51.9453C51.878 44.129 51.8134 44.1582 51.7658 44.2102C51.7182 44.2622 51.6914 44.3328 51.6914 44.4063C51.6914 44.4799 51.7182 44.5504 51.7658 44.6024C51.8134 44.6545 51.878 44.6837 51.9453 44.6837H62.132V46.9024H40.159C40.0916 46.9024 40.0271 46.9316 39.9794 46.9837C39.9318 47.0357 39.9051 47.1062 39.9051 47.1798V77.3603C39.9051 77.4339 39.9318 77.5044 39.9794 77.5564C40.0271 77.6084 40.0916 77.6377 40.159 77.6377H85.2121C85.2795 77.6377 85.344 77.6084 85.3917 77.5564C85.4393 77.5044 85.466 77.4339 85.466 77.3603V54.4295H87.4973V79.8564H37.8738V47.1798C37.8752 46.5182 38.1164 45.8842 38.5446 45.4164C38.9729 44.9486 39.5533 44.6851 40.159 44.6837H47.3191C47.3865 44.6837 47.4511 44.6545 47.4987 44.6024C47.5463 44.5504 47.573 44.4799 47.573 44.4063C47.573 44.3328 47.5463 44.2622 47.4987 44.2102C47.4511 44.1582 47.3865 44.129 47.3191 44.129H40.159C39.4187 44.1304 38.709 44.4523 38.1855 45.0242C37.662 45.596 37.3674 46.3711 37.366 47.1798V79.8564H33.8113C33.744 79.8564 33.6794 79.8856 33.6318 79.9376C33.5842 79.9896 33.5574 80.0602 33.5574 80.1337V84.0942C33.5588 85.05 33.907 85.9662 34.5257 86.642C35.1444 87.3179 35.9832 87.6982 36.8582 87.6997H72.7656C72.833 87.6997 72.8975 87.6705 72.9452 87.6185C72.9928 87.5664 73.0195 87.4959 73.0195 87.4223C73.0195 87.3488 72.9928 87.2782 72.9452 87.2262C72.8975 87.1742 72.833 87.145 72.7656 87.145H36.8633C36.1229 87.1435 35.4133 86.8216 34.8898 86.2498C34.3663 85.678 34.0717 84.9029 34.0703 84.0942V80.4111H54.6367V82.0752C54.6381 82.6837 54.86 83.267 55.254 83.6973C55.6479 84.1277 56.1819 84.3701 56.7391 84.3716H68.4797C69.0368 84.3701 69.5708 84.1277 69.9648 83.6973C70.3588 83.267 70.5807 82.6837 70.582 82.0752V80.4111H91.1484V84.0942C91.1471 84.9029 90.8524 85.678 90.3289 86.2498C89.8054 86.8216 89.0958 87.1435 88.3555 87.145H84.5266C84.4592 87.145 84.3946 87.1742 84.347 87.2262C84.2994 87.2782 84.2727 87.3488 84.2727 87.4223C84.2727 87.4959 84.2994 87.5664 84.347 87.6185C84.3946 87.6705 84.4592 87.6997 84.5266 87.6997H88.3555C89.2305 87.6982 90.0693 87.3179 90.688 86.642C91.3067 85.9662 91.6549 85.05 91.6562 84.0942V80.1337C91.6562 80.0602 91.6295 79.9896 91.5819 79.9376C91.5343 79.8856 91.4697 79.8564 91.4023 79.8564ZM64.6406 37.8555H89.1121C89.6378 37.8569 90.1416 38.0861 90.5128 38.4927C90.8841 38.8992 91.0926 39.45 91.0926 40.0243V51.7116C91.0912 52.2848 90.8822 52.8342 90.511 53.2396C90.1399 53.645 89.637 53.8734 89.1121 53.8748H72.4711C72.4091 53.8762 72.3497 53.9018 72.3035 53.947L67.7332 58.3845V54.1799C67.7332 54.1064 67.7065 54.0358 67.6588 53.9838C67.6112 53.9318 67.5466 53.9026 67.4793 53.9026H64.6406C64.1158 53.9011 63.6128 53.6727 63.2417 53.2673C62.8706 52.862 62.6615 52.3126 62.6602 51.7393V50.8518V49.0269V47.1798V44.4063V40.0243C62.6602 39.45 62.8686 38.8992 63.2399 38.4927C63.6112 38.0861 64.1149 37.8569 64.6406 37.8555ZM40.4129 47.4571H62.132V48.7495H56.7949C56.7276 48.7495 56.663 48.7787 56.6154 48.8308C56.5678 48.8828 56.541 48.9533 56.541 49.0269C56.541 49.1004 56.5678 49.171 56.6154 49.223C56.663 49.275 56.7276 49.3042 56.7949 49.3042H62.132V50.5966H40.4129V47.4571ZM46.2578 68.0471H46.1867C45.85 68.0471 45.5271 67.901 45.289 67.6409C45.0509 67.3809 44.9172 67.0282 44.9172 66.6604V61.8901C44.9172 61.5223 45.0509 61.1696 45.289 60.9095C45.5271 60.6495 45.85 60.5034 46.1867 60.5034H46.2578V68.0471ZM46.7656 68.33V60.2815V59.7268C46.7656 59.5061 46.8459 59.2945 46.9887 59.1385C47.1316 58.9824 47.3253 58.8948 47.5273 58.8948H60.893C61.095 58.8948 61.2887 58.9824 61.4316 59.1385C61.5744 59.2945 61.6547 59.5061 61.6547 59.7268V60.2815V68.3466V68.9013C61.6547 69.122 61.5744 69.3336 61.4316 69.4897C61.2887 69.6457 61.095 69.7334 60.893 69.7334H47.5273C47.3253 69.7334 47.1316 69.6457 46.9887 69.4897C46.8459 69.3336 46.7656 69.122 46.7656 68.9013V68.33ZM62.1625 60.5255H62.2336C62.5703 60.5255 62.8932 60.6716 63.1313 60.9317C63.3694 61.1918 63.5031 61.5445 63.5031 61.9123V66.6826C63.5031 67.0504 63.3694 67.4031 63.1313 67.6631C62.8932 67.9232 62.5703 68.0693 62.2336 68.0693H62.1625V60.5255ZM52.7324 70.2659H55.6879V72.4846H52.7324V70.2659ZM60.9895 73.0393C61.5951 73.0408 62.1756 73.3042 62.6038 73.772C63.0321 74.2398 63.2733 74.8738 63.2746 75.5354V77.0996H45.1457V75.5187C45.147 74.8572 45.3882 74.2232 45.8165 73.7554C46.2448 73.2876 46.8252 73.0241 47.4309 73.0227L60.9895 73.0393ZM84.9531 77.083H63.7824V75.5187C63.7811 74.7101 63.4864 73.935 62.9629 73.3631C62.4394 72.7913 61.7298 72.4694 60.9895 72.468H56.1957V70.2659H60.893C61.2297 70.2659 61.5526 70.1198 61.7907 69.8597C62.0287 69.5996 62.1625 69.2469 62.1625 68.8791V68.6018H62.2336C62.705 68.6018 63.157 68.3973 63.4904 68.0332C63.8237 67.6691 64.0109 67.1753 64.0109 66.6604V61.8901C64.0109 61.3752 63.8237 60.8814 63.4904 60.5173C63.157 60.1532 62.705 59.9487 62.2336 59.9487H62.1625V59.6713C62.1625 59.3035 62.0287 58.9508 61.7907 58.6908C61.5526 58.4307 61.2297 58.2846 60.893 58.2846H47.5273C47.1906 58.2846 46.8677 58.4307 46.6296 58.6908C46.3916 58.9508 46.2578 59.3035 46.2578 59.6713V59.9487H46.1867C45.7153 59.9487 45.2633 60.1532 44.9299 60.5173C44.5966 60.8814 44.4094 61.3752 44.4094 61.8901V66.6604C44.4094 67.1753 44.5966 67.6691 44.9299 68.0332C45.2633 68.3973 45.7153 68.6018 46.1867 68.6018H46.2578V68.8791C46.2578 69.2469 46.3916 69.5996 46.6296 69.8597C46.8677 70.1198 47.1906 70.2659 47.5273 70.2659H52.2246V72.4846H47.4309C46.6905 72.4861 45.9809 72.808 45.4574 73.3798C44.9339 73.9516 44.6392 74.7267 44.6379 75.5354V77.0996H40.4129V51.1513H62.132V51.706C62.1334 52.4264 62.396 53.1169 62.8623 53.6263C63.3287 54.1357 63.9608 54.4225 64.6203 54.424H67.2457V58.9946C67.2454 59.0473 67.2592 59.099 67.2854 59.1433C67.3115 59.1876 67.3489 59.2227 67.393 59.2442C67.4374 59.2681 67.4874 59.2767 67.5364 59.2688C67.5854 59.2608 67.631 59.2368 67.6672 59.1998L72.5676 54.424H84.9531V77.083ZM70.0691 82.0752C70.0678 82.5366 69.8994 82.9788 69.6006 83.3051C69.3019 83.6314 68.8971 83.8154 68.4746 83.8169H56.7391C56.3166 83.8154 55.9118 83.6314 55.613 83.3051C55.3143 82.9788 55.1459 82.5366 55.1445 82.0752V80.4111H70.0742L70.0691 82.0752Z" fill="black"/>
<path d="M79.8758 87.1448H77.3368C77.2694 87.1448 77.2048 87.174 77.1572 87.226C77.1096 87.278 77.0829 87.3486 77.0829 87.4221C77.0829 87.4957 77.1096 87.5662 77.1572 87.6182C77.2048 87.6702 77.2694 87.6995 77.3368 87.6995H79.8758C79.9432 87.6995 80.0077 87.6702 80.0554 87.6182C80.103 87.5662 80.1297 87.4957 80.1297 87.4221C80.1297 87.3486 80.103 87.278 80.0554 87.226C80.0077 87.174 79.9432 87.1448 79.8758 87.1448Z" fill="black"/>
<path d="M47.0686 75.053C47.0686 75.1265 47.0954 75.1971 47.143 75.2491C47.1906 75.3011 47.2552 75.3303 47.3225 75.3303H61.0842C61.1516 75.3303 61.2161 75.3011 61.2638 75.2491C61.3114 75.1971 61.3381 75.1265 61.3381 75.053C61.3381 74.9794 61.3114 74.9089 61.2638 74.8569C61.2161 74.8049 61.1516 74.7756 61.0842 74.7756H47.3225C47.2552 74.7756 47.1906 74.8049 47.143 74.8569C47.0954 74.9089 47.0686 74.9794 47.0686 75.053Z" fill="black"/>
<path d="M48.035 68.6016H60.385C60.4523 68.6016 60.5169 68.5724 60.5645 68.5204C60.6121 68.4684 60.6389 68.3979 60.6389 68.3243V60.248C60.6389 60.1745 60.6121 60.1039 60.5645 60.0519C60.5169 59.9999 60.4523 59.9707 60.385 59.9707H48.035C47.9676 59.9707 47.903 59.9999 47.8554 60.0519C47.8078 60.1039 47.7811 60.1745 47.7811 60.248V68.3465C47.7862 68.4161 47.8152 68.4811 47.8622 68.5284C47.9093 68.5757 47.971 68.6019 48.035 68.6016ZM60.1311 60.5032V68.047H48.2889V60.5254L60.1311 60.5032Z" fill="black"/>
<path d="M51.4829 67.021C51.7523 67.021 52.0106 66.9041 52.2011 66.6961C52.3916 66.488 52.4986 66.2059 52.4986 65.9116V62.6833C52.4986 62.3891 52.3916 62.107 52.2011 61.8989C52.0106 61.6909 51.7523 61.574 51.4829 61.574C51.2136 61.574 50.9553 61.6909 50.7648 61.8989C50.5743 62.107 50.4673 62.3891 50.4673 62.6833V65.9116C50.4673 66.2059 50.5743 66.488 50.7648 66.6961C50.9553 66.9041 51.2136 67.021 51.4829 67.021ZM50.9751 62.6833C50.9751 62.5362 51.0286 62.3951 51.1239 62.2911C51.2191 62.1871 51.3483 62.1287 51.4829 62.1287C51.6176 62.1287 51.7468 62.1871 51.842 62.2911C51.9373 62.3951 51.9908 62.5362 51.9908 62.6833V65.9116C51.9908 66.0587 51.9373 66.1998 51.842 66.3039C51.7468 66.4079 51.6176 66.4663 51.4829 66.4663C51.3483 66.4663 51.2191 66.4079 51.1239 66.3039C51.0286 66.1998 50.9751 66.0587 50.9751 65.9116V62.6833Z" fill="black"/>
<path d="M56.9333 67.021C57.2027 67.021 57.461 66.9041 57.6515 66.6961C57.842 66.488 57.949 66.2059 57.949 65.9116V62.6833C57.949 62.3891 57.842 62.107 57.6515 61.8989C57.461 61.6909 57.2027 61.574 56.9333 61.574C56.664 61.574 56.4057 61.6909 56.2152 61.8989C56.0247 62.107 55.9177 62.3891 55.9177 62.6833V65.9116C55.9177 66.2059 56.0247 66.488 56.2152 66.6961C56.4057 66.9041 56.664 67.021 56.9333 67.021ZM56.4255 62.6833C56.4255 62.5362 56.479 62.3951 56.5743 62.2911C56.6695 62.1871 56.7987 62.1287 56.9333 62.1287C57.068 62.1287 57.1972 62.1871 57.2924 62.2911C57.3877 62.3951 57.4412 62.5362 57.4412 62.6833V65.9116C57.4412 66.0587 57.3877 66.1998 57.2924 66.3039C57.1972 66.4079 57.068 66.4663 56.9333 66.4663C56.7987 66.4663 56.6695 66.4079 56.5743 66.3039C56.479 66.1998 56.4255 66.0587 56.4255 65.9116V62.6833Z" fill="black"/>
<path d="M65.6923 42.3484H76.8642C76.9316 42.3484 76.9961 42.3192 77.0438 42.2672C77.0914 42.2151 77.1181 42.1446 77.1181 42.071C77.1181 41.9975 77.0914 41.9269 77.0438 41.8749C76.9961 41.8229 76.9316 41.7937 76.8642 41.7937H65.6923C65.625 41.7937 65.5604 41.8229 65.5128 41.8749C65.4652 41.9269 65.4384 41.9975 65.4384 42.071C65.4397 42.1442 65.4669 42.2139 65.5142 42.2656C65.5616 42.3173 65.6254 42.347 65.6923 42.3484Z" fill="black"/>
<path d="M65.6923 46.1423H88.0361C88.1034 46.1423 88.168 46.1131 88.2156 46.0611C88.2632 46.0091 88.29 45.9385 88.29 45.865C88.29 45.7914 88.2632 45.7209 88.2156 45.6689C88.168 45.6169 88.1034 45.5876 88.0361 45.5876H65.6923C65.6254 45.5891 65.5616 45.6187 65.5142 45.6705C65.4669 45.7222 65.4397 45.7919 65.4384 45.865C65.4384 45.9385 65.4652 46.0091 65.5128 46.0611C65.5604 46.1131 65.625 46.1423 65.6923 46.1423Z" fill="black"/>
<path d="M65.6923 49.9419H88.0361C88.1034 49.9419 88.168 49.9127 88.2156 49.8607C88.2632 49.8087 88.29 49.7381 88.29 49.6646C88.29 49.591 88.2632 49.5205 88.2156 49.4684C88.168 49.4164 88.1034 49.3872 88.0361 49.3872H65.6923C65.625 49.3872 65.5604 49.4164 65.5128 49.4684C65.4652 49.5205 65.4384 49.591 65.4384 49.6646C65.4384 49.7381 65.4652 49.8087 65.5128 49.8607C65.5604 49.9127 65.625 49.9419 65.6923 49.9419Z" fill="black"/>
<path d="M71.1864 63.3435H67.2864C67.2195 63.3449 67.1556 63.3746 67.1083 63.4263C67.061 63.478 67.0338 63.5477 67.0325 63.6208V67.8808C67.0338 67.954 67.061 68.0237 67.1083 68.0754C67.1556 68.1271 67.2195 68.1568 67.2864 68.1582H71.1864C71.2533 68.1568 71.3172 68.1271 71.3645 68.0754C71.4118 68.0237 71.439 67.954 71.4403 67.8808V63.6098C71.4365 63.5386 71.4082 63.4716 71.3611 63.4223C71.314 63.3729 71.2516 63.3448 71.1864 63.3435ZM70.9325 67.6035H67.5403V63.8982H70.9325V67.6035Z" fill="black"/>
<path d="M72.5326 67.8807C72.5339 67.9538 72.5611 68.0235 72.6084 68.0753C72.6558 68.127 72.7196 68.1566 72.7865 68.1581H76.6814C76.7488 68.1581 76.8134 68.1288 76.861 68.0768C76.9086 68.0248 76.9353 67.9543 76.9353 67.8807V63.6096C76.9353 63.5361 76.9086 63.4655 76.861 63.4135C76.8134 63.3615 76.7488 63.3323 76.6814 63.3323H72.7662C72.6993 63.3337 72.6354 63.3634 72.5881 63.4151C72.5408 63.4668 72.5136 63.5365 72.5123 63.6096L72.5326 67.8807ZM73.0404 63.8981H76.4275V67.6034H73.0404V63.8981Z" fill="black"/>
<path d="M78.2847 68.1581H82.1797C82.247 68.1581 82.3116 68.1288 82.3592 68.0768C82.4068 68.0248 82.4336 67.9543 82.4336 67.8807V63.6096C82.4336 63.5361 82.4068 63.4655 82.3592 63.4135C82.3116 63.3615 82.247 63.3323 82.1797 63.3323H78.2847C78.2174 63.3323 78.1528 63.3615 78.1052 63.4135C78.0576 63.4655 78.0308 63.5361 78.0308 63.6096V67.8807C78.0308 67.9543 78.0576 68.0248 78.1052 68.0768C78.1528 68.1288 78.2174 68.1581 78.2847 68.1581ZM78.5386 63.8981H81.9054V67.6034H78.5386V63.8981Z" fill="black"/>
<path d="M71.1864 69.2456H67.2864C67.2191 69.2456 67.1545 69.2748 67.1069 69.3268C67.0592 69.3788 67.0325 69.4494 67.0325 69.5229V73.7774C67.0325 73.851 67.0592 73.9215 67.1069 73.9735C67.1545 74.0255 67.2191 74.0547 67.2864 74.0547H71.1864C71.2537 74.0547 71.3183 74.0255 71.3659 73.9735C71.4135 73.9215 71.4403 73.851 71.4403 73.7774V69.5229C71.4403 69.4494 71.4135 69.3788 71.3659 69.3268C71.3183 69.2748 71.2537 69.2456 71.1864 69.2456ZM70.9325 73.5001H67.5403V69.8003H70.9325V73.5001Z" fill="black"/>
<path d="M76.6814 69.2456H72.7662C72.6989 69.2456 72.6343 69.2748 72.5867 69.3268C72.539 69.3788 72.5123 69.4494 72.5123 69.5229V73.7774C72.5123 73.851 72.539 73.9215 72.5867 73.9735C72.6343 74.0255 72.6989 74.0547 72.7662 74.0547H76.6611C76.7285 74.0547 76.793 74.0255 76.8407 73.9735C76.8883 73.9215 76.915 73.851 76.915 73.7774V69.5229C76.9152 69.4531 76.8913 69.3857 76.848 69.3343C76.8047 69.2829 76.7452 69.2512 76.6814 69.2456ZM76.4275 73.5001H73.0404V69.8003H76.4275V73.5001Z" fill="black"/>
<path d="M78.2847 74.0547H82.1797C82.247 74.0547 82.3116 74.0255 82.3592 73.9735C82.4068 73.9215 82.4336 73.851 82.4336 73.7774V69.5229C82.4336 69.4494 82.4068 69.3788 82.3592 69.3268C82.3116 69.2748 82.247 69.2456 82.1797 69.2456H78.2847C78.2174 69.2456 78.1528 69.2748 78.1052 69.3268C78.0576 69.3788 78.0308 69.4494 78.0308 69.5229V73.7774C78.0308 73.851 78.0576 73.9215 78.1052 73.9735C78.1528 74.0255 78.2174 74.0547 78.2847 74.0547ZM78.5386 69.8003H81.9054V73.5001H78.5386V69.8003Z" fill="black"/>
<path d="M42.8302 48.1284C42.6675 48.1284 42.5085 48.1811 42.3732 48.2799C42.2379 48.3786 42.1324 48.5189 42.0702 48.6831C42.0079 48.8473 41.9916 49.028 42.0234 49.2023C42.0551 49.3766 42.1335 49.5367 42.2485 49.6624C42.3636 49.7881 42.5101 49.8737 42.6697 49.9083C42.8293 49.943 42.9947 49.9252 43.145 49.8572C43.2953 49.7892 43.4238 49.674 43.5142 49.5262C43.6046 49.3785 43.6529 49.2047 43.6529 49.027C43.6529 48.7887 43.5662 48.5601 43.4119 48.3916C43.2576 48.2231 43.0484 48.1284 42.8302 48.1284ZM42.8302 49.3709C42.7889 49.3709 42.7479 49.362 42.7097 49.3447C42.6715 49.3275 42.6368 49.3021 42.6076 49.2702C42.5783 49.2383 42.5552 49.2003 42.5393 49.1586C42.5235 49.1169 42.5154 49.0722 42.5154 49.027C42.5154 48.9818 42.5235 48.9371 42.5393 48.8954C42.5552 48.8537 42.5783 48.8158 42.6076 48.7838C42.6368 48.7519 42.6715 48.7266 42.7097 48.7093C42.7479 48.692 42.7889 48.6831 42.8302 48.6831C42.9137 48.6831 42.9938 48.7193 43.0528 48.7838C43.1119 48.8483 43.1451 48.9358 43.1451 49.027C43.1451 49.1182 43.1119 49.2057 43.0528 49.2702C42.9938 49.3347 42.9137 49.3709 42.8302 49.3709Z" fill="black"/>
<path d="M45.684 48.1284C45.5213 48.1284 45.3623 48.1811 45.227 48.2799C45.0917 48.3786 44.9863 48.5189 44.924 48.6831C44.8617 48.8473 44.8454 49.028 44.8772 49.2023C44.9089 49.3766 44.9873 49.5367 45.1023 49.6624C45.2174 49.7881 45.364 49.8737 45.5235 49.9083C45.6831 49.943 45.8485 49.9252 45.9988 49.8572C46.1492 49.7892 46.2776 49.674 46.368 49.5262C46.4584 49.3785 46.5067 49.2047 46.5067 49.027C46.5067 48.7887 46.42 48.5601 46.2657 48.3916C46.1115 48.2231 45.9022 48.1284 45.684 48.1284ZM45.684 49.3709C45.6218 49.3709 45.5609 49.3507 45.5091 49.313C45.4573 49.2752 45.417 49.2215 45.3932 49.1586C45.3693 49.0958 45.3631 49.0266 45.3752 48.9599C45.3874 48.8932 45.4174 48.8319 45.4614 48.7838C45.5054 48.7357 45.5615 48.703 45.6226 48.6897C45.6837 48.6764 45.747 48.6833 45.8045 48.7093C45.862 48.7353 45.9112 48.7794 45.9458 48.8359C45.9804 48.8925 45.9989 48.959 45.9989 49.027C45.9989 49.1182 45.9657 49.2057 45.9067 49.2702C45.8476 49.3347 45.7675 49.3709 45.684 49.3709Z" fill="black"/>
<path d="M48.5375 48.1284C48.3748 48.1284 48.2158 48.1811 48.0805 48.2799C47.9452 48.3786 47.8397 48.519 47.7775 48.6832C47.7152 48.8473 47.6989 49.028 47.7307 49.2023C47.7624 49.3766 47.8408 49.5368 47.9558 49.6624C48.0709 49.7881 48.2174 49.8737 48.377 49.9084C48.5366 49.943 48.702 49.9252 48.8523 49.8572C49.0027 49.7892 49.1311 49.674 49.2215 49.5263C49.3119 49.3785 49.3602 49.2048 49.3602 49.027C49.3608 48.9088 49.34 48.7916 49.2989 48.6823C49.2578 48.5729 49.1973 48.4736 49.1207 48.39C49.0442 48.3064 48.9532 48.2402 48.8531 48.1953C48.753 48.1504 48.6457 48.1277 48.5375 48.1284ZM48.5375 49.3709C48.4752 49.3709 48.4144 49.3508 48.3626 49.313C48.3108 49.2752 48.2705 49.2215 48.2466 49.1586C48.2228 49.0958 48.2166 49.0266 48.2287 48.9599C48.2409 48.8932 48.2709 48.8319 48.3149 48.7839C48.3589 48.7358 48.415 48.703 48.4761 48.6897C48.5372 48.6765 48.6005 48.6833 48.658 48.7093C48.7155 48.7353 48.7647 48.7794 48.7993 48.836C48.8339 48.8925 48.8524 48.959 48.8524 49.027C48.8524 49.1182 48.8192 49.2057 48.7601 49.2702C48.7011 49.3347 48.621 49.3709 48.5375 49.3709Z" fill="black"/>
<defs>
<linearGradient id="paint0_linear_30_147" x1="0.0278017" y1="1.85194e-06" x2="142.787" y2="82.8849" gradientUnits="userSpaceOnUse">
<stop stop-color="#00D7E1"/>
<stop offset="1" stop-color="#2B6EC8"/>
</linearGradient>
</defs>
</svg>
