<svg width="126" height="125" viewBox="0 0 126 125" fill="none" xmlns="http://www.w3.org/2000/svg">
<path d="M54.3598 4.80443C59.5092 1.83144 65.8535 1.83144 71.0029 4.80443L108.486 26.4456C113.636 29.4186 116.808 34.9129 116.808 40.8589V84.1411C116.808 90.0871 113.636 95.5814 108.486 98.5544L71.0029 120.196C65.8535 123.169 59.5092 123.169 54.3598 120.196L16.8763 98.5544C11.7269 95.5814 8.55475 90.0871 8.55475 84.1411V40.8589C8.55475 34.9129 11.7269 29.4186 16.8763 26.4456L54.3598 4.80443Z" fill="#0E0C15" stroke="url(#paint0_linear_30_207)"/>
<path d="M33.759 42.165V76.4336H91.1418V42.165C91.1418 41.8889 91.092 41.6156 90.9953 41.3605C90.8986 41.1054 90.7568 40.8737 90.5781 40.6785C90.3994 40.4833 90.1872 40.3284 89.9537 40.2228C89.7202 40.1171 89.47 40.0627 89.2172 40.0627H35.6836C35.1732 40.0627 34.6837 40.2842 34.3227 40.6785C33.9618 41.0727 33.759 41.6075 33.759 42.165Z" fill="#3D47A3"/>
<path d="M35.7893 42.2815H89.1096V76.4336H35.7893V42.2815Z" fill="#E2E7F3"/>
<path d="M91.142 76.4336V83.0898C91.142 83.3659 91.0922 83.6393 90.9955 83.8943C90.8988 84.1494 90.757 84.3812 90.5783 84.5764C90.3996 84.7716 90.1874 84.9264 89.9539 85.0321C89.7204 85.1377 89.4701 85.1921 89.2174 85.1921H35.6838C35.1734 85.1921 34.6839 84.9706 34.3229 84.5764C33.962 84.1821 33.7592 83.6474 33.7592 83.0898V76.4336H91.142Z" fill="#938EFF"/>
<path d="M56.386 85.1755H68.3044V92.2312H56.386V85.1755Z" fill="#41BDA5"/>
<path d="M54.9359 92.231H69.7691V93.9505H54.9359V92.231Z" fill="#938EFF"/>
<path d="M68.2176 52.5266H47.2297C45.3535 52.5266 43.8325 54.188 43.8325 56.2375V67.7805C43.8325 69.83 45.3535 71.4914 47.2297 71.4914H68.2176C70.0939 71.4914 71.6149 69.83 71.6149 67.7805V56.2375C71.6149 54.188 70.0939 52.5266 68.2176 52.5266Z" fill="#C5D0F3"/>
<path d="M69.5778 67.7808V56.2377C69.5778 55.4136 68.9662 54.7456 68.2118 54.7456H47.2239C46.4695 54.7456 45.8579 55.4136 45.8579 56.2377V67.7808C45.8579 68.6048 46.4695 69.2729 47.2239 69.2729H68.2118C68.9662 69.2729 69.5778 68.6048 69.5778 67.7808Z" fill="#E2E7F3"/>
<path d="M53.8221 59.1275C53.8221 59.4753 53.7277 59.8152 53.5508 60.1044C53.374 60.3936 53.1225 60.6189 52.8284 60.752C52.5343 60.8851 52.2106 60.9199 51.8983 60.8521C51.5861 60.7842 51.2992 60.6168 51.0741 60.3708C50.849 60.1249 50.6956 59.8116 50.6335 59.4705C50.5714 59.1295 50.6033 58.7759 50.7251 58.4546C50.847 58.1333 51.0533 57.8587 51.318 57.6655C51.5828 57.4723 51.894 57.3691 52.2124 57.3691C52.6393 57.3691 53.0488 57.5544 53.3506 57.8842C53.6525 58.2139 53.8221 58.6612 53.8221 59.1275Z" fill="white"/>
<path d="M64.8417 59.1275C64.8417 59.4753 64.7473 59.8152 64.5704 60.1044C64.3935 60.3936 64.1421 60.6189 63.848 60.752C63.5538 60.8851 63.2302 60.9199 62.9179 60.8521C62.6056 60.7842 62.3188 60.6168 62.0937 60.3708C61.8686 60.1249 61.7152 59.8116 61.6531 59.4705C61.591 59.1295 61.6229 58.7759 61.7447 58.4546C61.8666 58.1333 62.0729 57.8587 62.3376 57.6655C62.6023 57.4723 62.9136 57.3691 63.232 57.3691C63.6589 57.3691 64.0683 57.5544 64.3702 57.8842C64.6721 58.2139 64.8417 58.6612 64.8417 59.1275Z" fill="white"/>
<path d="M49.4334 49.6423H66.0084C66.2778 49.6423 66.5361 49.7592 66.7266 49.9673C66.9171 50.1753 67.0241 50.4575 67.0241 50.7517V52.5156H48.4127V50.7573C48.4121 50.6107 48.438 50.4653 48.4891 50.3297C48.5401 50.1941 48.6153 50.0709 48.7102 49.9673C48.8051 49.8636 48.9179 49.7815 49.042 49.7257C49.1662 49.6699 49.2992 49.6416 49.4334 49.6423Z" fill="#A5B8F3"/>
<path d="M66.0088 74.3706H49.4338C49.1645 74.3706 48.9062 74.2537 48.7157 74.0457C48.5252 73.8376 48.4182 73.5554 48.4182 73.2612V71.4918H67.0295V73.2612C67.0295 73.4074 67.0031 73.5521 66.9517 73.687C66.9004 73.822 66.8251 73.9445 66.7303 74.0476C66.6354 74.1507 66.5229 74.2323 66.3991 74.2877C66.2753 74.3432 66.1426 74.3713 66.0088 74.3706Z" fill="#A5B8F3"/>
<path d="M69.9344 75.0801V76.4335C69.2844 76.4335 51.0996 76.4335 45.5086 76.4335V75.0801C45.5086 74.6387 45.6691 74.2155 45.9548 73.9034C46.2405 73.5913 46.628 73.416 47.032 73.416H68.411C68.815 73.416 69.2025 73.5913 69.4882 73.9034C69.7739 74.2155 69.9344 74.6387 69.9344 75.0801Z" fill="#C5D0F3"/>
<path d="M64.953 51.3623H50.4905C50.4232 51.3623 50.3586 51.3331 50.311 51.2811C50.2634 51.2291 50.2366 51.1585 50.2366 51.085C50.2366 51.0114 50.2634 50.9409 50.311 50.8889C50.3586 50.8368 50.4232 50.8076 50.4905 50.8076H64.953C65.0204 50.8076 65.085 50.8368 65.1326 50.8889C65.1802 50.9409 65.2069 51.0114 65.2069 51.085C65.2069 51.1585 65.1802 51.2291 65.1326 51.2811C65.085 51.3331 65.0204 51.3623 64.953 51.3623Z" fill="#B4C3F3"/>
<path d="M53.8222 62.6499V62.7497C53.8222 63.8796 54.2331 64.9631 54.9645 65.762C55.6959 66.5609 56.6879 67.0097 57.7222 67.0097C58.7565 67.0097 59.7485 66.5609 60.4799 65.762C61.2113 64.9631 61.6222 63.8796 61.6222 62.7497V62.6499H53.8222Z" fill="white"/>
<path d="M91.242 35.2759V48.5496C91.2407 49.677 90.8297 50.7577 90.0994 51.5544C89.3691 52.351 88.3792 52.7985 87.3471 52.7985H77.8459L73.1994 56.6813V52.7985H67.9639C66.9318 52.7985 65.9419 52.351 65.2116 51.5544C64.4813 50.7577 64.0703 49.677 64.069 48.5496V35.2759C64.0703 34.148 64.4811 33.0668 65.2113 32.2692C65.9414 31.4717 66.9313 31.023 67.9639 31.0215H87.3471C88.3797 31.023 89.3696 31.4717 90.0997 32.2692C90.8299 33.0668 91.2407 34.148 91.242 35.2759Z" fill="#91BEFF"/>
<path d="M77.7025 49.7426C77.4992 49.7426 77.3042 49.655 77.1604 49.4989C77.0167 49.3429 76.9359 49.1313 76.9359 48.9106V39.259C76.9359 39.0384 77.0167 38.8267 77.1604 38.6707C77.3042 38.5147 77.4992 38.427 77.7025 38.427C77.9058 38.427 78.1008 38.5147 78.2446 38.6707C78.3883 38.8267 78.4691 39.0384 78.4691 39.259V48.8884C78.4718 48.9995 78.454 49.1101 78.4167 49.2136C78.3794 49.3172 78.3234 49.4115 78.2519 49.4911C78.1805 49.5708 78.095 49.634 78.0007 49.6772C77.9063 49.7204 77.8049 49.7427 77.7025 49.7426Z" fill="white"/>
<path d="M77.7025 36.5464C78.1258 36.5464 78.4691 36.1739 78.4691 35.7144C78.4691 35.2548 78.1258 34.8823 77.7025 34.8823C77.2791 34.8823 76.9359 35.2548 76.9359 35.7144C76.9359 36.1739 77.2791 36.5464 77.7025 36.5464Z" fill="white"/>
<path d="M48.058 84.8982H45.519C45.4516 84.8982 45.3871 84.9274 45.3394 84.9794C45.2918 85.0314 45.2651 85.102 45.2651 85.1755C45.2651 85.2491 45.2918 85.3196 45.3394 85.3716C45.3871 85.4237 45.4516 85.4529 45.519 85.4529H48.058C48.1254 85.4529 48.19 85.4237 48.2376 85.3716C48.2852 85.3196 48.312 85.2491 48.312 85.1755C48.312 85.102 48.2852 85.0314 48.2376 84.9794C48.19 84.9274 48.1254 84.8982 48.058 84.8982Z" fill="black"/>
<path d="M45.6097 56.2377V67.7752C45.6097 68.245 45.7802 68.6957 46.0838 69.0284C46.3875 69.3611 46.7995 69.5487 47.2296 69.5502H68.2124C68.6425 69.5487 69.0545 69.3611 69.3582 69.0284C69.6618 68.6957 69.8323 68.245 69.8323 67.7752V56.2377C69.8323 55.7684 69.6617 55.3184 69.3579 54.9865C69.0541 54.6547 68.642 54.4683 68.2124 54.4683H47.2296C46.8 54.4683 46.3879 54.6547 46.0841 54.9865C45.7804 55.3184 45.6097 55.7684 45.6097 56.2377ZM69.3245 56.2377V67.7752C69.3245 68.0979 69.2075 68.4075 68.9991 68.6362C68.7907 68.8648 68.5078 68.9941 68.2124 68.9955H47.2296C46.9342 68.9941 46.6513 68.8648 46.4429 68.6362C46.2345 68.4075 46.1175 68.0979 46.1175 67.7752V56.2377C46.1175 55.9155 46.2347 55.6066 46.4432 55.3787C46.6518 55.1509 46.9347 55.0229 47.2296 55.0229H68.2124C68.5074 55.0229 68.7902 55.1509 68.9988 55.3787C69.2074 55.6066 69.3245 55.9155 69.3245 56.2377Z" fill="black"/>
<path d="M52.2132 61.1632C52.5818 61.1632 52.9421 61.0438 53.2486 60.8201C53.5551 60.5964 53.794 60.2785 53.935 59.9065C54.0761 59.5346 54.113 59.1252 54.0411 58.7304C53.9692 58.3355 53.7917 57.9727 53.531 57.688C53.2704 57.4033 52.9383 57.2095 52.5768 57.1309C52.2153 57.0524 51.8406 57.0927 51.5 57.2468C51.1595 57.4008 50.8684 57.6618 50.6636 57.9965C50.4589 58.3313 50.3495 58.7249 50.3495 59.1275C50.3509 59.667 50.5477 60.1839 50.8969 60.5653C51.2461 60.9468 51.7194 61.1617 52.2132 61.1632ZM52.2132 57.6465C52.4814 57.6465 52.7435 57.7333 52.9665 57.8961C53.1895 58.0588 53.3632 58.2901 53.4659 58.5607C53.5685 58.8314 53.5953 59.1291 53.543 59.4164C53.4907 59.7037 53.3616 59.9676 53.172 60.1747C52.9823 60.3819 52.7407 60.5229 52.4777 60.5801C52.2147 60.6372 51.9421 60.6079 51.6944 60.4958C51.4466 60.3837 51.2348 60.1939 51.0859 59.9503C50.9369 59.7068 50.8574 59.4204 50.8574 59.1275C50.8587 58.7352 51.002 58.3593 51.256 58.0819C51.5099 57.8045 51.854 57.6479 52.2132 57.6465Z" fill="black"/>
<path d="M63.231 61.163C63.5996 61.163 63.96 61.0436 64.2664 60.8199C64.5729 60.5962 64.8118 60.2783 64.9528 59.9063C65.0939 59.5343 65.1308 59.125 65.0589 58.7301C64.987 58.3352 64.8095 57.9725 64.5489 57.6878C64.2882 57.4031 63.9561 57.2092 63.5946 57.1307C63.2331 57.0521 62.8584 57.0924 62.5178 57.2465C62.1773 57.4006 61.8862 57.6615 61.6815 57.9963C61.4767 58.3311 61.3674 58.7246 61.3674 59.1273C61.3674 59.6672 61.5637 60.1849 61.9132 60.5667C62.2627 60.9485 62.7368 61.163 63.231 61.163ZM63.231 57.6462C63.4992 57.6462 63.7613 57.7331 63.9843 57.8958C64.2073 58.0586 64.3811 58.2899 64.4837 58.5605C64.5863 58.8311 64.6132 59.1289 64.5608 59.4162C64.5085 59.7035 64.3794 59.9674 64.1898 60.1745C64.0002 60.3816 63.7586 60.5227 63.4956 60.5798C63.2325 60.637 62.9599 60.6076 62.7122 60.4955C62.4644 60.3834 62.2527 60.1936 62.1037 59.9501C61.9547 59.7065 61.8752 59.4202 61.8752 59.1273C61.8765 58.7349 62.0198 58.3591 62.2738 58.0816C62.5278 57.8042 62.8719 57.6477 63.231 57.6462Z" fill="black"/>
<path d="M61.6211 62.3726H53.8211C53.7538 62.3726 53.6892 62.4018 53.6416 62.4538C53.594 62.5058 53.5672 62.5763 53.5672 62.6499V62.7497C53.5672 63.9531 54.0048 65.1072 54.7839 65.9581C55.5629 66.809 56.6194 67.2871 57.7211 67.2871C58.8228 67.2871 59.8794 66.809 60.6584 65.9581C61.4374 65.1072 61.875 63.9531 61.875 62.7497V62.6499C61.875 62.5763 61.8483 62.5058 61.8006 62.4538C61.753 62.4018 61.6884 62.3726 61.6211 62.3726ZM57.7211 66.7269C56.7833 66.7265 55.8817 66.3315 55.2037 65.6239C54.5256 64.9163 54.1232 63.9505 54.0801 62.9272H61.3621C61.319 63.9505 60.9166 64.9163 60.2386 65.6239C59.5605 66.3315 58.6589 66.7265 57.7211 66.7269Z" fill="black"/>
<path d="M91.496 35.2759C91.4934 34.0749 91.0554 32.924 90.2779 32.0747C89.5004 31.2255 88.4467 30.7471 87.3472 30.7441H67.964C66.8645 30.7471 65.8108 31.2255 65.0333 32.0747C64.2558 32.924 63.8179 34.0749 63.8152 35.2759V39.7855H35.6824C35.105 39.787 34.5517 40.0382 34.1434 40.4841C33.7351 40.9301 33.5052 41.5345 33.5038 42.1652V83.0734C33.5052 83.704 33.7351 84.3084 34.1434 84.7544C34.5517 85.2003 35.105 85.4515 35.6824 85.453H40.9027C40.97 85.453 41.0346 85.4237 41.0822 85.3717C41.1298 85.3197 41.1566 85.2492 41.1566 85.1756C41.1566 85.1021 41.1298 85.0315 41.0822 84.9795C41.0346 84.9275 40.97 84.8983 40.9027 84.8983H35.6824C35.2397 84.8968 34.8155 84.7041 34.5025 84.3622C34.1894 84.0202 34.013 83.5569 34.0117 83.0734V76.7111H90.8867V83.0734C90.8853 83.5569 90.7089 84.0202 90.3958 84.3622C90.0828 84.7041 89.6586 84.8968 89.216 84.8983H52.6839C52.6166 84.8983 52.552 84.9275 52.5044 84.9795C52.4568 85.0315 52.43 85.1021 52.43 85.1756C52.43 85.2492 52.4568 85.3197 52.5044 85.3717C52.552 85.4237 52.6166 85.453 52.6839 85.453H56.132V91.9539H54.9335C54.8662 91.9539 54.8016 91.9831 54.754 92.0351C54.7064 92.0871 54.6796 92.1577 54.6796 92.2312V93.9508C54.6796 94.0243 54.7064 94.0949 54.754 94.1469C54.8016 94.1989 54.8662 94.2281 54.9335 94.2281H69.7617C69.829 94.2281 69.8936 94.1989 69.9412 94.1469C69.9888 94.0949 70.0156 94.0243 70.0156 93.9508V92.2312C70.0156 92.1577 69.9888 92.0871 69.9412 92.0351C69.8936 91.9831 69.829 91.9539 69.7617 91.9539H68.5632V85.453H89.216C89.502 85.453 89.7853 85.3914 90.0496 85.2718C90.3139 85.1522 90.5541 84.977 90.7564 84.756C90.9587 84.535 91.1192 84.2727 91.2286 83.984C91.3381 83.6953 91.3945 83.3858 91.3945 83.0734V64.5357C91.3945 64.4621 91.3677 64.3916 91.3201 64.3396C91.2725 64.2876 91.2079 64.2584 91.1406 64.2584C91.0732 64.2584 91.0086 64.2876 90.961 64.3396C90.9134 64.3916 90.8867 64.4621 90.8867 64.5357V76.1841H89.3632V52.5156C89.9898 52.1323 90.5147 51.5781 90.8867 50.907V59.4769C90.8867 59.5505 90.9134 59.621 90.961 59.6731C91.0086 59.7251 91.0732 59.7543 91.1406 59.7543C91.2079 59.7543 91.2725 59.7251 91.3201 59.6731C91.3677 59.621 91.3945 59.5505 91.3945 59.4769V49.5314C91.4617 49.2093 91.4958 48.88 91.496 48.5496V35.2759ZM69.5078 93.6734H55.1874V92.5086H69.5078V93.6734ZM56.6398 91.9539V85.453H68.0554V91.9539H56.6398ZM50.4902 51.3619H64.7089C64.9571 51.7006 65.2477 51.9993 65.5722 52.2494H48.6671V50.7573C48.6685 50.5356 48.7497 50.3234 48.8932 50.1666C49.0367 50.0098 49.231 49.9211 49.4339 49.9197H64.0234C64.1142 50.2287 64.2351 50.5263 64.3839 50.8072H50.4902C50.4228 50.8072 50.3583 50.8364 50.3106 50.8884C50.263 50.9404 50.2363 51.011 50.2363 51.0845C50.2363 51.1581 50.263 51.2286 50.3106 51.2806C50.3583 51.3327 50.4228 51.3619 50.4902 51.3619ZM69.4316 53.0703C70.0031 53.3297 70.4911 53.7687 70.8338 54.3317C71.1765 54.8946 71.3583 55.556 71.3562 56.232V67.7695C71.3562 68.6807 71.0252 69.5546 70.4358 70.1994C69.8465 70.8441 69.047 71.2071 68.2128 71.2086H47.23C46.3959 71.2071 45.5964 70.8441 45.007 70.1994C44.4177 69.5546 44.0867 68.6807 44.0867 67.7695V56.2376C44.088 55.3274 44.4196 54.4549 45.0088 53.8113C45.598 53.1677 46.3968 52.8055 47.23 52.8041H66.5624C67.0136 52.9822 67.4894 53.0741 67.9691 53.0759L69.4316 53.0703ZM63.8863 49.365H49.4339C49.0963 49.3665 48.7729 49.5136 48.5341 49.7744C48.2954 50.0352 48.1607 50.3885 48.1593 50.7573V52.2494H47.23C46.2621 52.2508 45.3342 52.6715 44.6497 53.4191C43.9653 54.1667 43.5802 55.1803 43.5788 56.2376V67.7751C43.5802 68.8329 43.9651 69.847 44.6494 70.5955C45.3337 71.344 46.2616 71.7659 47.23 71.7688H48.1593V73.1389H47.032C46.5606 73.1389 46.1085 73.3434 45.7752 73.7075C45.4419 74.0716 45.2546 74.5654 45.2546 75.0803V76.1564H36.0429V42.559H63.8152V48.5496C63.8182 48.8231 63.842 49.0958 63.8863 49.365ZM69.6804 76.1564C67.9538 76.1564 46.8847 76.1564 45.7624 76.1564V75.0803C45.7624 74.7125 45.8962 74.3598 46.1343 74.0998C46.3724 73.8397 46.6953 73.6936 47.032 73.6936H68.4109C68.7476 73.6936 69.0705 73.8397 69.3086 74.0998C69.5467 74.3598 69.6804 74.7125 69.6804 75.0803V76.1564ZM66.7757 73.1389H48.6671V71.7688H66.7757V73.1389ZM35.6824 40.3402H63.8152V42.0043H35.789C35.7217 42.0043 35.6571 42.0335 35.6095 42.0855C35.5618 42.1375 35.5351 42.2081 35.5351 42.2816V76.1564H34.0117V42.1652C34.013 41.6816 34.1894 41.2183 34.5025 40.8764C34.8155 40.5344 35.2397 40.3417 35.6824 40.3402ZM88.8554 76.1564H70.1882V75.0803C70.1882 74.5654 70.001 74.0716 69.6677 73.7075C69.3343 73.3434 68.8823 73.1389 68.4109 73.1389H67.2835V71.7688H68.2128C69.1812 71.7659 70.1091 71.344 70.7934 70.5955C71.4777 69.847 71.8627 68.8329 71.864 67.7751V56.2376C71.8654 55.6253 71.7374 55.0209 71.4899 54.4715C71.2423 53.9222 70.8821 53.4426 70.437 53.0703H72.9355V56.6591C72.9355 56.7106 72.9486 56.7611 72.9734 56.8049C72.9982 56.8488 73.0337 56.8842 73.0758 56.9072C73.118 56.9302 73.1652 56.94 73.2122 56.9354C73.2592 56.9307 73.304 56.9119 73.3417 56.881L77.9121 53.0703H87.3269C87.8481 53.0727 88.365 52.9673 88.8503 52.7597L88.8554 76.1564ZM87.332 52.5212H77.846C77.7902 52.521 77.7362 52.5426 77.6937 52.5822L73.4535 56.1045V52.7763C73.4522 52.7032 73.425 52.6335 73.3777 52.5818C73.3303 52.5301 73.2665 52.5004 73.1996 52.499H67.964C66.9992 52.499 66.0739 52.0807 65.3912 51.3361C64.7085 50.5914 64.3243 49.5813 64.323 48.5274V35.2759C64.3243 34.2216 64.7084 33.2109 65.3909 32.4653C66.0734 31.7198 66.9988 31.3003 67.964 31.2988H87.3472C88.3125 31.3003 89.2378 31.7198 89.9203 32.4653C90.6028 33.2109 90.9869 34.2216 90.9882 35.2759V48.5496C90.9855 49.6025 90.6007 50.6112 89.9182 51.3547C89.2357 52.0981 88.3111 52.5156 87.3472 52.5156L87.332 52.5212Z" fill="black"/>
<path d="M77.6984 38.1487C77.4291 38.1487 77.1707 38.2656 76.9803 38.4736C76.7898 38.6817 76.6828 38.9638 76.6828 39.2581V48.8874C76.6828 49.1817 76.7898 49.4638 76.9803 49.6719C77.1707 49.8799 77.4291 49.9968 77.6984 49.9968C77.9678 49.9968 78.2261 49.8799 78.4166 49.6719C78.607 49.4638 78.7141 49.1817 78.7141 48.8874V39.2581C78.7141 38.9638 78.607 38.6817 78.4166 38.4736C78.2261 38.2656 77.9678 38.1487 77.6984 38.1487ZM78.2062 48.8874C78.2062 49.0345 78.1527 49.1756 78.0575 49.2797C77.9623 49.3837 77.8331 49.4421 77.6984 49.4421C77.5637 49.4421 77.4346 49.3837 77.3393 49.2797C77.2441 49.1756 77.1906 49.0345 77.1906 48.8874V39.2581C77.1906 39.1109 77.2441 38.9699 77.3393 38.8658C77.4346 38.7618 77.5637 38.7034 77.6984 38.7034C77.8331 38.7034 77.9623 38.7618 78.0575 38.8658C78.1527 38.9699 78.2062 39.1109 78.2062 39.2581V48.8874Z" fill="black"/>
<path d="M77.6984 34.6099C77.4976 34.6099 77.3012 34.6749 77.1342 34.7968C76.9672 34.9187 76.837 35.092 76.7601 35.2947C76.6832 35.4974 76.6631 35.7205 76.7023 35.9357C76.7415 36.1509 76.8382 36.3485 76.9803 36.5037C77.1223 36.6588 77.3033 36.7645 77.5003 36.8073C77.6973 36.8501 77.9015 36.8281 78.0871 36.7442C78.2727 36.6602 78.4313 36.518 78.5429 36.3356C78.6545 36.1531 78.7141 35.9387 78.7141 35.7192C78.7141 35.425 78.607 35.1428 78.4166 34.9348C78.2261 34.7267 77.9678 34.6099 77.6984 34.6099ZM77.6984 36.2739C77.598 36.2739 77.4998 36.2414 77.4163 36.1804C77.3328 36.1195 77.2677 36.0329 77.2293 35.9315C77.1908 35.8302 77.1808 35.7186 77.2004 35.611C77.22 35.5034 77.2683 35.4046 77.3393 35.327C77.4104 35.2494 77.5009 35.1966 77.5994 35.1752C77.6979 35.1538 77.8 35.1648 77.8928 35.2068C77.9855 35.2488 78.0649 35.3199 78.1207 35.4111C78.1765 35.5023 78.2062 35.6095 78.2062 35.7192C78.2049 35.8654 78.1508 36.0051 78.0557 36.1079C77.9606 36.2107 77.8322 36.2684 77.6984 36.2684V36.2739Z" fill="black"/>
<path d="M59.4526 82.5294C59.5703 82.773 59.7715 82.9558 60.0122 83.0379C60.2529 83.12 60.5136 83.0947 60.7373 82.9676L61.5397 82.5128V83.5057C61.5397 83.7808 61.6397 84.0446 61.8178 84.2391C61.9959 84.4337 62.2374 84.5429 62.4893 84.5429C62.7411 84.5429 62.9827 84.4337 63.1608 84.2391C63.3389 84.0446 63.4389 83.7808 63.4389 83.5057V82.5128L64.2463 82.9732C64.4692 83.0926 64.726 83.1119 64.9617 83.027C65.1975 82.9421 65.3934 82.7598 65.5076 82.519C65.6218 82.2783 65.6452 81.9982 65.5727 81.7389C65.5002 81.4796 65.3376 81.2616 65.1198 81.1316L64.5561 80.8043L65.1299 80.4771C65.3393 80.3418 65.4931 80.124 65.5597 79.8685C65.6264 79.613 65.6007 79.3393 65.488 79.1038C65.3754 78.8684 65.1843 78.6891 64.9542 78.603C64.7241 78.5169 64.4726 78.5305 64.2514 78.6411L63.4491 79.1014V78.1086C63.4491 77.8335 63.349 77.5696 63.1709 77.3751C62.9928 77.1806 62.7513 77.0713 62.4994 77.0713C62.2476 77.0713 62.0061 77.1806 61.828 77.3751C61.6499 77.5696 61.5498 77.8335 61.5498 78.1086V79.0959L60.7475 78.6411C60.6365 78.5776 60.5152 78.5387 60.3905 78.5267C60.2657 78.5146 60.14 78.5297 60.0206 78.5709C59.9012 78.6121 59.7904 78.6788 59.6947 78.767C59.5989 78.8552 59.5201 78.9632 59.4627 79.0848C59.3488 79.3305 59.3269 79.615 59.4018 79.878C59.4789 80.1373 59.6469 80.3527 59.869 80.4771L60.4682 80.8043L59.8994 81.1316C59.7853 81.1903 59.683 81.2733 59.5985 81.3757C59.514 81.4782 59.4491 81.5979 59.4075 81.7281C59.3659 81.8582 59.3484 81.9961 59.3562 82.1337C59.3639 82.2713 59.3967 82.4058 59.4526 82.5294ZM62.4994 80.2497L62.9412 80.5048V81.0595L62.4994 81.359L62.0577 81.1094V80.5547L62.4994 80.2497ZM62.9412 83.4946C62.9412 83.6226 62.8947 83.7453 62.8118 83.8358C62.729 83.9263 62.6166 83.9772 62.4994 83.9772C62.3823 83.9772 62.2699 83.9263 62.187 83.8358C62.1042 83.7453 62.0577 83.6226 62.0577 83.4946V81.7251L62.9412 82.2243V83.4946ZM65.0791 82.2576C65.0528 82.3134 65.0167 82.363 64.9729 82.4035C64.929 82.444 64.8783 82.4746 64.8236 82.4937C64.7689 82.5128 64.7112 82.5199 64.654 82.5146C64.5968 82.5093 64.5411 82.4917 64.4901 82.4629L63.0479 81.6419L64.0026 81.0872L64.8963 81.592C64.951 81.621 64.9996 81.6621 65.0389 81.7128C65.0782 81.7634 65.1074 81.8225 65.1246 81.8862C65.1419 81.9499 65.1467 82.0169 65.1389 82.0827C65.131 82.1486 65.1107 82.2119 65.0791 82.2687V82.2576ZM64.4901 79.1403C64.5409 79.1107 64.5967 79.0925 64.6541 79.0868C64.7115 79.0811 64.7693 79.0881 64.8242 79.1072C64.8791 79.1263 64.93 79.1573 64.9738 79.1982C65.0175 79.2391 65.0534 79.2892 65.0791 79.3455C65.1331 79.4582 65.1441 79.5895 65.1099 79.7111C65.0757 79.8326 64.9989 79.9344 64.8963 79.9945L63.4491 80.8043V79.695L64.4901 79.1403ZM62.0577 79.3899V78.1141C62.0577 77.9861 62.1042 77.8634 62.187 77.7729C62.2699 77.6824 62.3823 77.6315 62.4994 77.6315C62.6166 77.6315 62.729 77.6824 62.8118 77.7729C62.8947 77.8634 62.9412 77.9861 62.9412 78.1141V79.8947L62.0577 79.3899ZM59.9147 79.3455C59.9415 79.2888 59.9783 79.2385 60.023 79.1975C60.0677 79.1564 60.1194 79.1254 60.1751 79.1064C60.2308 79.0873 60.2895 79.0804 60.3476 79.0863C60.4058 79.0921 60.4623 79.1104 60.5139 79.1403L61.9459 79.9557L60.9963 80.5104L60.1026 80.0056C60.0498 79.9758 60.0031 79.9348 59.965 79.8851C59.9269 79.8353 59.8983 79.7778 59.8808 79.7158C59.8633 79.6539 59.8573 79.5887 59.8631 79.5242C59.8689 79.4596 59.8865 79.397 59.9147 79.34V79.3455ZM60.1077 81.6308L61.5498 80.8043V81.9137L60.5342 82.5072C60.4297 82.566 60.3082 82.5774 60.196 82.539C60.0839 82.5005 59.9901 82.4154 59.935 82.302C59.9031 82.2459 59.8822 82.1832 59.8736 82.1178C59.8651 82.0524 59.8691 81.9858 59.8853 81.9222C59.9015 81.8586 59.9297 81.7994 59.9679 81.7483C60.0062 81.6971 60.0538 81.6553 60.1077 81.6253V81.6308Z" fill="black"/>
<defs>
<linearGradient id="paint0_linear_30_207" x1="0.0278017" y1="1.85194e-06" x2="142.787" y2="82.8849" gradientUnits="userSpaceOnUse">
<stop stop-color="#00D7E1"/>
<stop offset="1" stop-color="#2B6EC8"/>
</linearGradient>
</defs>
</svg>
