<svg width="126" height="125" viewBox="0 0 126 125" fill="none" xmlns="http://www.w3.org/2000/svg">
<path d="M54.3598 4.80443C59.5092 1.83144 65.8535 1.83144 71.0029 4.80443L108.486 26.4456C113.636 29.4186 116.808 34.9129 116.808 40.8589V84.1411C116.808 90.0871 113.636 95.5814 108.486 98.5544L71.0029 120.196C65.8535 123.169 59.5092 123.169 54.3598 120.196L16.8763 98.5544C11.7269 95.5814 8.55475 90.0871 8.55475 84.1411V40.8589C8.55475 34.9129 11.7269 29.4186 16.8763 26.4456L54.3598 4.80443Z" fill="#0E0C15" stroke="url(#paint0_linear_30_91)"/>
<path d="M33.7063 76.7222H91.2922V80.6771C91.2922 81.5598 90.9712 82.4063 90.3998 83.0304C89.8284 83.6546 89.0534 84.0052 88.2454 84.0052H36.7532C35.9451 84.0052 35.1701 83.6546 34.5987 83.0304C34.0273 82.4063 33.7063 81.5598 33.7063 80.6771V76.7222Z" fill="#91BEFF"/>
<path d="M40.0489 40.9946H85.102C85.7754 40.9946 86.4212 41.2868 86.8974 41.8069C87.3736 42.3271 87.6411 43.0325 87.6411 43.7681V76.7221H37.5098V43.7681C37.5098 43.0325 37.7773 42.3271 38.2535 41.8069C38.7297 41.2868 39.3755 40.9946 40.0489 40.9946Z" fill="#3D47A3"/>
<path d="M85.103 43.7681V73.9542H40.0498V43.7681H85.103Z" fill="#E2E7F3"/>
<path d="M54.7805 76.7222V78.6636C54.7805 78.9285 54.8284 79.1907 54.9213 79.4354C55.0143 79.6801 55.1505 79.9023 55.3222 80.0893C55.4939 80.2764 55.6977 80.4246 55.922 80.5254C56.1462 80.6263 56.3865 80.6778 56.629 80.6771H68.3696C68.6121 80.6778 68.8523 80.6263 69.0766 80.5254C69.3008 80.4246 69.5046 80.2764 69.6763 80.0893C69.848 79.9023 69.9843 79.6801 70.0772 79.4354C70.1702 79.1907 70.218 78.9285 70.218 78.6636V76.7222H54.7805Z" fill="#336CBD"/>
<path d="M40.0499 43.7681H85.103V47.4623H40.0499V43.7681Z" fill="#C5D0F3"/>
<path d="M63.3414 52.0605H81.4297V58.1621H63.3414V52.0605Z" fill="#C5D0F3"/>
<path d="M57.4216 61.7842C57.4225 63.082 57.1168 64.3582 56.5341 65.4892C55.9515 66.6203 55.1115 67.568 54.0955 68.2408C53.0458 68.9371 51.8455 69.316 50.6176 69.3387C49.3897 69.3615 48.1783 69.0272 47.1076 68.3702C46.0369 67.7132 45.1454 66.7571 44.5244 65.5998C43.9034 64.4425 43.5753 63.1256 43.5736 61.7842C43.5485 60.7738 43.7091 59.7681 44.0458 58.8265C44.3825 57.885 44.8885 57.0267 45.5339 56.3024C46.1794 55.578 46.9511 55.0022 47.8037 54.6091C48.6562 54.216 49.5722 54.0134 50.4976 54.0134C51.423 54.0134 52.339 54.216 53.1915 54.6091C54.0441 55.0022 54.8159 55.578 55.4613 56.3024C56.1067 57.0267 56.6127 57.885 56.9494 58.8265C57.2861 59.7681 57.4467 60.7738 57.4216 61.7842Z" fill="#336CBD"/>
<path d="M54.0937 61.7621V58.9998C54.0937 58.3871 53.639 57.8904 53.0781 57.8904H47.9085C47.3476 57.8904 46.8929 58.3871 46.8929 58.9998V61.7621C46.8929 62.3748 47.3476 62.8715 47.9085 62.8715H53.0781C53.639 62.8715 54.0937 62.3748 54.0937 61.7621Z" fill="#91BEFF"/>
<path d="M54.0932 65.6837V68.2408C53.0107 68.9662 51.7654 69.3501 50.4954 69.3501C49.2254 69.3501 47.9801 68.9662 46.8975 68.2408V65.6837C46.8969 65.4458 46.9392 65.21 47.0221 64.99C47.105 64.77 47.2268 64.57 47.3806 64.4015C47.5344 64.233 47.7171 64.0993 47.9183 64.008C48.1195 63.9168 48.3352 63.8699 48.553 63.8699H52.4378C52.6556 63.8699 52.8713 63.9168 53.0725 64.008C53.2736 64.0993 53.4564 64.233 53.6102 64.4015C53.7639 64.57 53.8858 64.77 53.9687 64.99C54.0516 65.21 54.0939 65.4458 54.0932 65.6837Z" fill="#91BEFF"/>
<path d="M49.5011 59.8151C49.4991 59.9396 49.4633 60.0608 49.398 60.1633C49.3328 60.2658 49.2411 60.3451 49.1345 60.3913C49.0279 60.4375 48.9111 60.4484 48.7987 60.4228C48.6864 60.3971 48.5835 60.3361 48.5031 60.2472C48.4226 60.1583 48.3681 60.0457 48.3465 59.9233C48.3248 59.801 48.3369 59.6744 48.3813 59.5595C48.4257 59.4446 48.5004 59.3465 48.5959 59.2775C48.6915 59.2085 48.8037 59.1717 48.9185 59.1716C48.9959 59.1716 49.0725 59.1883 49.1439 59.2208C49.2152 59.2533 49.2799 59.3008 49.3342 59.3607C49.3884 59.4206 49.4311 59.4917 49.4598 59.5697C49.4884 59.6477 49.5025 59.7311 49.5011 59.8151Z" fill="#E2E7F3"/>
<path d="M52.6642 59.8151C52.6621 59.9396 52.6263 60.0608 52.561 60.1633C52.4958 60.2658 52.4041 60.3451 52.2975 60.3913C52.1909 60.4375 52.0741 60.4484 51.9618 60.4228C51.8494 60.3971 51.7466 60.3361 51.6661 60.2472C51.5856 60.1583 51.5312 60.0457 51.5095 59.9233C51.4878 59.801 51.4999 59.6744 51.5443 59.5595C51.5887 59.4446 51.6634 59.3465 51.759 59.2775C51.8545 59.2085 51.9668 59.1717 52.0815 59.1716C52.1587 59.1724 52.235 59.1896 52.3061 59.2223C52.3771 59.255 52.4415 59.3026 52.4956 59.3624C52.5497 59.4221 52.5925 59.4929 52.6214 59.5705C52.6503 59.6482 52.6648 59.7313 52.6642 59.8151Z" fill="#E2E7F3"/>
<path d="M59.2252 54.9782C59.2242 55.5539 59.067 56.1164 58.7734 56.5946C58.4799 57.0727 58.0632 57.4451 57.5759 57.6647C57.0887 57.8842 56.5528 57.9411 56.036 57.8281C55.5192 57.7151 55.0446 57.4374 54.6723 57.0299C54.2999 56.6224 54.0465 56.1035 53.944 55.5387C53.8416 54.974 53.8947 54.3888 54.0966 53.857C54.2985 53.3252 54.6403 52.8707 55.0786 52.5509C55.5169 52.2312 56.0321 52.0605 56.5592 52.0605C56.9097 52.0605 57.2568 52.1361 57.5806 52.2827C57.9044 52.4294 58.1985 52.6444 58.4462 52.9154C58.6938 53.1864 58.8901 53.5081 59.0237 53.8621C59.1574 54.216 59.2259 54.5953 59.2252 54.9782Z" fill="#FFAB39"/>
<path d="M42.7244 46.2364C43.0406 46.2364 43.2968 45.9583 43.2968 45.6151C43.2968 45.272 43.0406 44.9939 42.7244 44.9939C42.4083 44.9939 42.152 45.272 42.152 45.6151C42.152 45.9583 42.4083 46.2364 42.7244 46.2364Z" fill="#E2E7F3"/>
<path d="M45.5779 46.2364C45.8941 46.2364 46.1503 45.9583 46.1503 45.6151C46.1503 45.272 45.8941 44.9939 45.5779 44.9939C45.2618 44.9939 45.0056 45.272 45.0056 45.6151C45.0056 45.9583 45.2618 46.2364 45.5779 46.2364Z" fill="#E2E7F3"/>
<path d="M48.4315 46.2364C48.7476 46.2364 49.0039 45.9583 49.0039 45.6151C49.0039 45.272 48.7476 44.9939 48.4315 44.9939C48.1153 44.9939 47.8591 45.272 47.8591 45.6151C47.8591 45.9583 48.1153 46.2364 48.4315 46.2364Z" fill="#E2E7F3"/>
<path d="M91.2923 76.4447H87.89V62.9769C87.89 62.9033 87.8632 62.8328 87.8156 62.7808C87.768 62.7288 87.7034 62.6996 87.6361 62.6996C87.5687 62.6996 87.5041 62.7288 87.4565 62.7808C87.4089 62.8328 87.3822 62.9033 87.3822 62.9769V76.4447H37.7638V43.7681C37.7651 43.1065 38.0063 42.4725 38.4346 42.0047C38.8628 41.5369 39.4433 41.2734 40.049 41.272H85.1021C85.7077 41.2734 86.2882 41.5369 86.7164 42.0047C87.1447 42.4725 87.3859 43.1065 87.3872 43.7681V57.9237C87.3872 57.9972 87.414 58.0678 87.4616 58.1198C87.5092 58.1718 87.5738 58.201 87.6411 58.201C87.7085 58.201 87.7731 58.1718 87.8207 58.1198C87.8683 58.0678 87.895 57.9972 87.895 57.9237V43.7681C87.8937 42.9594 87.599 42.1843 87.0755 41.6125C86.552 41.0406 85.8424 40.7188 85.1021 40.7173H40.049C39.3086 40.7188 38.599 41.0406 38.0755 41.6125C37.552 42.1843 37.2573 42.9594 37.256 43.7681V76.4447H33.7013C33.634 76.4447 33.5694 76.4739 33.5218 76.5259C33.4741 76.578 33.4474 76.6485 33.4474 76.7221V80.677C33.4487 81.6328 33.7969 82.549 34.4156 83.2248C35.0344 83.9006 35.8732 84.281 36.7482 84.2824H43.3904C43.4577 84.2824 43.5223 84.2532 43.5699 84.2012C43.6175 84.1492 43.6443 84.0787 43.6443 84.0051C43.6443 83.9315 43.6175 83.861 43.5699 83.809C43.5223 83.757 43.4577 83.7278 43.3904 83.7278H36.7532C36.0129 83.7263 35.3033 83.4044 34.7798 82.8326C34.2563 82.2608 33.9616 81.4856 33.9603 80.677V76.9994H54.5267V78.6635C54.528 79.2715 54.7501 79.8542 55.1442 80.2837C55.5384 80.7131 56.0723 80.9543 56.629 80.9543H68.3697C68.9263 80.9543 69.4603 80.7131 69.8544 80.2837C70.2486 79.8542 70.4706 79.2715 70.472 78.6635V76.9994H91.0384V80.677C91.0371 81.4856 90.7424 82.2608 90.2189 82.8326C89.6954 83.4044 88.9858 83.7263 88.2454 83.7278H55.1716C55.1043 83.7278 55.0397 83.757 54.9921 83.809C54.9445 83.861 54.9177 83.9315 54.9177 84.0051C54.9177 84.0787 54.9445 84.1492 54.9921 84.2012C55.0397 84.2532 55.1043 84.2824 55.1716 84.2824H88.2454C89.1204 84.281 89.9592 83.9006 90.578 83.2248C91.1967 82.549 91.5449 81.6328 91.5462 80.677V76.7221C91.5462 76.6485 91.5195 76.578 91.4718 76.5259C91.4242 76.4739 91.3596 76.4447 91.2923 76.4447ZM69.9642 78.6635C69.9628 79.1244 69.7943 79.566 69.4954 79.8915C69.1965 80.2169 68.7917 80.3996 68.3697 80.3996H56.629C56.207 80.3996 55.8022 80.2169 55.5033 79.8915C55.2044 79.566 55.0358 79.1244 55.0345 78.6635V76.9994H69.9642V78.6635Z" fill="black"/>
<path d="M50.545 83.7278H48.0059C47.9386 83.7278 47.874 83.757 47.8264 83.809C47.7788 83.861 47.752 83.9316 47.752 84.0051C47.752 84.0787 47.7788 84.1492 47.8264 84.2012C47.874 84.2533 47.9386 84.2825 48.0059 84.2825H50.545C50.6123 84.2825 50.6769 84.2533 50.7245 84.2012C50.7721 84.1492 50.7989 84.0787 50.7989 84.0051C50.7989 83.9316 50.7721 83.861 50.7245 83.809C50.6769 83.757 50.6123 83.7278 50.545 83.7278Z" fill="black"/>
<path d="M40.049 43.4907C39.9816 43.4907 39.917 43.5199 39.8694 43.572C39.8218 43.624 39.795 43.6945 39.795 43.7681V73.9486C39.795 74.0222 39.8218 74.0927 39.8694 74.1447C39.917 74.1967 39.9816 74.226 40.049 74.226H85.1021C85.1694 74.226 85.234 74.1967 85.2816 74.1447C85.3292 74.0927 85.356 74.0222 85.356 73.9486V43.7681C85.356 43.6945 85.3292 43.624 85.2816 43.572C85.234 43.5199 85.1694 43.4907 85.1021 43.4907H40.049ZM84.8431 73.6713H40.3029V47.7341H84.8431V73.6713ZM84.8431 47.1794H40.3029V44.0454H84.8431V47.1794Z" fill="black"/>
<path d="M56.6852 45.8926H68.3141C68.3811 45.8912 68.4449 45.8615 68.4922 45.8098C68.5396 45.7581 68.5668 45.6883 68.5681 45.6152C68.5681 45.5417 68.5413 45.4711 68.4937 45.4191C68.4461 45.3671 68.3815 45.3379 68.3141 45.3379H56.6852C56.6179 45.3379 56.5533 45.3671 56.5057 45.4191C56.4581 45.4711 56.4313 45.5417 56.4313 45.6152C56.4326 45.6883 56.4598 45.7581 56.5071 45.8098C56.5545 45.8615 56.6183 45.8912 56.6852 45.8926Z" fill="black"/>
<path d="M63.3424 58.4397H81.4256C81.4929 58.4397 81.5575 58.4105 81.6051 58.3585C81.6528 58.3065 81.6795 58.2359 81.6795 58.1624V52.0608C81.6795 51.9872 81.6528 51.9167 81.6051 51.8647C81.5575 51.8127 81.4929 51.7834 81.4256 51.7834H63.3424C63.2751 51.7834 63.2105 51.8127 63.1629 51.8647C63.1153 51.9167 63.0885 51.9872 63.0885 52.0608V58.1624C63.0885 58.2359 63.1153 58.3065 63.1629 58.3585C63.2105 58.4105 63.2751 58.4397 63.3424 58.4397ZM63.5963 52.3381H81.1717V57.885H63.5963V52.3381Z" fill="black"/>
<path d="M63.3424 61.7732H69.8119C69.8789 61.7718 69.9427 61.7421 69.99 61.6904C70.0374 61.6387 70.0645 61.569 70.0658 61.4958C70.0658 61.4223 70.0391 61.3517 69.9915 61.2997C69.9439 61.2477 69.8793 61.2185 69.8119 61.2185H63.3424C63.2751 61.2185 63.2105 61.2477 63.1629 61.2997C63.1153 61.3517 63.0885 61.4223 63.0885 61.4958C63.0885 61.5694 63.1153 61.6399 63.1629 61.692C63.2105 61.744 63.2751 61.7732 63.3424 61.7732Z" fill="black"/>
<path d="M63.3424 65.7004H69.8119C69.8789 65.699 69.9427 65.6693 69.99 65.6176C70.0374 65.5659 70.0645 65.4962 70.0658 65.4231C70.0658 65.3495 70.0391 65.279 69.9915 65.227C69.9439 65.175 69.8793 65.1458 69.8119 65.1458H63.3424C63.2751 65.1458 63.2105 65.175 63.1629 65.227C63.1153 65.279 63.0885 65.3495 63.0885 65.4231C63.0885 65.4967 63.1153 65.5672 63.1629 65.6192C63.2105 65.6712 63.2751 65.7004 63.3424 65.7004Z" fill="black"/>
<path d="M63.3424 69.6221H69.8119C69.8793 69.6221 69.9439 69.5929 69.9915 69.5408C70.0391 69.4888 70.0658 69.4183 70.0658 69.3447C70.0645 69.2716 70.0374 69.2019 69.99 69.1502C69.9427 69.0985 69.8789 69.0688 69.8119 69.0674H63.3424C63.2751 69.0674 63.2105 69.0966 63.1629 69.1486C63.1153 69.2006 63.0885 69.2712 63.0885 69.3447C63.0885 69.4183 63.1153 69.4888 63.1629 69.5408C63.2105 69.5929 63.2751 69.6221 63.3424 69.6221Z" fill="black"/>
<path d="M81.4263 61.2188H74.9568C74.8894 61.2188 74.8249 61.248 74.7772 61.3C74.7296 61.352 74.7029 61.4225 74.7029 61.4961C74.7042 61.5692 74.7314 61.6389 74.7787 61.6906C74.826 61.7423 74.8899 61.772 74.9568 61.7734H81.4263C81.4937 61.7734 81.5582 61.7442 81.6059 61.6922C81.6535 61.6402 81.6802 61.5696 81.6802 61.4961C81.6802 61.4225 81.6535 61.352 81.6059 61.3C81.5582 61.248 81.4937 61.2188 81.4263 61.2188Z" fill="black"/>
<path d="M81.4263 65.1458H74.9568C74.8894 65.1458 74.8249 65.175 74.7772 65.227C74.7296 65.279 74.7029 65.3495 74.7029 65.4231C74.7042 65.4962 74.7314 65.5659 74.7787 65.6176C74.826 65.6693 74.8899 65.699 74.9568 65.7004H81.4263C81.4937 65.7004 81.5582 65.6712 81.6059 65.6192C81.6535 65.5672 81.6802 65.4967 81.6802 65.4231C81.6802 65.3495 81.6535 65.279 81.6059 65.227C81.5582 65.175 81.4937 65.1458 81.4263 65.1458Z" fill="black"/>
<path d="M81.4263 69.0674H74.9568C74.8899 69.0688 74.826 69.0985 74.7787 69.1502C74.7314 69.2019 74.7042 69.2716 74.7029 69.3447C74.7029 69.4183 74.7296 69.4888 74.7772 69.5408C74.8249 69.5929 74.8894 69.6221 74.9568 69.6221H81.4263C81.4937 69.6221 81.5582 69.5929 81.6059 69.5408C81.6535 69.4888 81.6802 69.4183 81.6802 69.3447C81.6802 69.2712 81.6535 69.2006 81.6059 69.1486C81.5582 69.0966 81.4937 69.0674 81.4263 69.0674Z" fill="black"/>
<path d="M47.914 63.1489H53.0785C53.4147 63.1475 53.7369 63.0009 53.9747 62.7412C54.2125 62.4814 54.3467 62.1295 54.348 61.7622V58.9888C54.348 58.621 54.2142 58.2683 53.9761 58.0082C53.7381 57.7482 53.4152 57.6021 53.0785 57.6021H47.914C47.5773 57.6021 47.2544 57.7482 47.0163 58.0082C46.7782 58.2683 46.6445 58.621 46.6445 58.9888V61.7622C46.6458 62.1295 46.78 62.4814 47.0178 62.7412C47.2556 63.0009 47.5777 63.1475 47.914 63.1489ZM47.1523 58.9999C47.1523 58.7792 47.2325 58.5676 47.3754 58.4115C47.5182 58.2555 47.712 58.1678 47.914 58.1678H53.0785C53.2805 58.1678 53.4742 58.2555 53.6171 58.4115C53.7599 58.5676 53.8402 58.7792 53.8402 58.9999V61.7733C53.8402 61.994 53.7599 62.2056 53.6171 62.3616C53.4742 62.5177 53.2805 62.6053 53.0785 62.6053H47.914C47.712 62.6053 47.5182 62.5177 47.3754 62.3616C47.2325 62.2056 47.1523 61.994 47.1523 61.7733V58.9999Z" fill="black"/>
<path d="M48.9158 60.7249C49.1366 60.7249 49.3485 60.6291 49.5046 60.4585C49.6608 60.2879 49.7486 60.0565 49.7486 59.8152C49.7486 59.5739 49.6608 59.3426 49.5046 59.172C49.3485 59.0014 49.1366 58.9055 48.9158 58.9055C48.6949 58.9055 48.4831 59.0014 48.3269 59.172C48.1707 59.3426 48.0829 59.5739 48.0829 59.8152C48.0829 60.0565 48.1707 60.2879 48.3269 60.4585C48.4831 60.6291 48.6949 60.7249 48.9158 60.7249ZM48.9158 59.4602C48.9589 59.4602 49.0015 59.4696 49.0413 59.4877C49.0811 59.5059 49.1171 59.5326 49.1474 59.5661C49.1776 59.5997 49.2015 59.6395 49.2175 59.6832C49.2335 59.7269 49.2414 59.7737 49.2408 59.8208C49.2408 59.9149 49.2065 60.0052 49.1456 60.0718C49.0846 60.1383 49.002 60.1758 48.9158 60.1758C48.8296 60.1758 48.7469 60.1383 48.6859 60.0718C48.625 60.0052 48.5908 59.9149 48.5908 59.8208C48.5907 59.7261 48.6248 59.6352 48.6856 59.5677C48.7464 59.5003 48.8291 59.4617 48.9158 59.4602Z" fill="black"/>
<path d="M52.0788 60.7249C52.2437 60.7249 52.4049 60.6714 52.542 60.5712C52.6791 60.471 52.7858 60.3286 52.8487 60.162C52.9116 59.9955 52.9278 59.8123 52.8952 59.6357C52.8627 59.4591 52.7828 59.297 52.6659 59.17C52.5489 59.043 52.4 58.9568 52.2381 58.9223C52.0763 58.8879 51.9086 58.9067 51.7566 58.9764C51.6045 59.0461 51.4748 59.1635 51.3839 59.3139C51.293 59.4642 51.245 59.6406 51.246 59.8208C51.2473 60.0611 51.3357 60.291 51.4917 60.4604C51.6477 60.6298 51.8588 60.7249 52.0788 60.7249ZM52.0788 59.4602C52.1655 59.4617 52.2481 59.5003 52.3089 59.5677C52.3697 59.6352 52.4038 59.7261 52.4038 59.8208C52.4028 59.8907 52.3829 59.9588 52.3466 60.0164C52.3103 60.0741 52.2592 60.1187 52.1997 60.1447C52.1402 60.1708 52.075 60.177 52.0123 60.1627C51.9496 60.1484 51.8922 60.1141 51.8473 60.0643C51.8023 60.0144 51.7719 59.9512 51.7597 59.8824C51.7476 59.8137 51.7543 59.7426 51.7791 59.6781C51.8038 59.6136 51.8454 59.5584 51.8988 59.5197C51.9521 59.4809 52.0147 59.4602 52.0788 59.4602Z" fill="black"/>
<path d="M51.2717 61.2961H49.7482C49.6809 61.2961 49.6163 61.3254 49.5687 61.3774C49.5211 61.4294 49.4943 61.4999 49.4943 61.5735C49.4943 61.647 49.5211 61.7176 49.5687 61.7696C49.6163 61.8216 49.6809 61.8508 49.7482 61.8508H51.2717C51.339 61.8508 51.4036 61.8216 51.4512 61.7696C51.4988 61.7176 51.5256 61.647 51.5256 61.5735C51.5256 61.4999 51.4988 61.4294 51.4512 61.3774C51.4036 61.3254 51.339 61.2961 51.2717 61.2961Z" fill="black"/>
<path d="M50.4954 69.6276C51.7302 69.6274 52.9442 69.2794 54.0199 68.6172C55.0957 67.955 55.997 67.001 56.6366 65.8472C57.2763 64.6935 57.6328 63.3791 57.6716 62.0309C57.7104 60.6828 57.4303 59.3464 56.8583 58.1511C57.4107 58.0892 57.9355 57.8565 58.3711 57.4803C58.8067 57.1042 59.1351 56.6002 59.3177 56.0274C59.5004 55.4546 59.5297 54.8368 59.4023 54.2464C59.2749 53.6561 58.996 53.1176 58.5983 52.6943C58.2007 52.2709 57.7008 51.9802 57.1572 51.8562C56.6136 51.7322 56.049 51.7801 55.5295 51.9942C55.0099 52.2083 54.5571 52.5798 54.224 53.0651C53.8909 53.5504 53.6914 54.1294 53.6489 54.7342C52.6782 54.2173 51.6133 53.9462 50.5334 53.9411C49.4535 53.936 48.3865 54.197 47.4118 54.7047C46.437 55.2124 45.5797 55.9537 44.9035 56.8734C44.2274 57.7932 43.7499 58.8677 43.5065 60.0169C43.2632 61.1661 43.2603 62.3605 43.498 63.5112C43.7358 64.6618 44.2081 65.739 44.8798 66.6627C45.5515 67.5863 46.4052 68.3326 47.3775 68.8459C48.3498 69.3592 49.4155 69.6264 50.4954 69.6276ZM53.8673 68.08C52.8491 68.7163 51.6964 69.051 50.5233 69.051C49.3503 69.051 48.1976 68.7163 47.1794 68.08V65.6837C47.1833 65.2848 47.329 64.9032 47.5858 64.6195C47.8427 64.3359 48.1904 64.1725 48.5556 64.1639H52.4403C52.6255 64.1609 52.8093 64.198 52.9813 64.2728C53.1534 64.3477 53.3102 64.4589 53.4427 64.6001C53.5753 64.7413 53.6811 64.9097 53.7539 65.0957C53.8268 65.2816 53.8653 65.4815 53.8673 65.6837V68.08ZM56.5587 52.3379C57.0368 52.3379 57.5041 52.4928 57.9016 52.7829C58.2991 53.073 58.6089 53.4854 58.7919 53.9679C58.9748 54.4503 59.0227 54.9812 58.9294 55.4934C58.8362 56.0055 58.6059 56.476 58.2679 56.8452C57.9298 57.2145 57.4991 57.466 57.0303 57.5678C56.5614 57.6697 56.0753 57.6174 55.6337 57.4176C55.192 57.2177 54.8145 56.8793 54.5489 56.4451C54.2833 56.0109 54.1415 55.5005 54.1415 54.9783C54.1415 54.278 54.3962 53.6064 54.8495 53.1113C55.3028 52.6161 55.9176 52.3379 56.5587 52.3379ZM50.4954 54.4901C51.6006 54.4927 52.6879 54.7958 53.6591 55.3721C53.7437 56.0912 54.0497 56.7574 54.5268 57.2614C55.0039 57.7654 55.6237 58.0772 56.2845 58.1455C56.8611 59.253 57.1655 60.5047 57.1681 61.7787C57.1739 62.9397 56.923 64.085 56.4368 65.1174C55.9505 66.1497 55.2432 67.0386 54.3751 67.7083V65.6837C54.3731 65.4086 54.3214 65.1367 54.2231 64.8834C54.1247 64.6302 53.9815 64.4006 53.8018 64.2079C53.6221 64.0152 53.4093 63.8631 53.1757 63.7604C52.942 63.6576 52.6922 63.6063 52.4403 63.6092H48.5556C48.0487 63.6107 47.563 63.8316 47.2051 64.2236C46.8472 64.6157 46.6462 65.1467 46.6462 65.7004V67.725C45.774 67.0588 45.0623 66.1722 44.5715 65.1407C44.0808 64.1092 43.8257 62.9634 43.8278 61.8009C43.8251 59.8659 44.5259 58.0088 45.7762 56.638C47.0265 55.2671 48.7239 54.4945 50.4954 54.4901Z" fill="black"/>
<path d="M55.6887 54.5068C55.756 54.5068 55.8206 54.4776 55.8682 54.4256C55.9158 54.3736 55.9426 54.303 55.9426 54.2295C55.9426 54.0967 55.9786 53.9669 56.0461 53.8566C56.1136 53.7462 56.2096 53.6602 56.3219 53.6094C56.4342 53.5586 56.5577 53.5453 56.6769 53.5712C56.7961 53.5971 56.9056 53.661 56.9915 53.7549C57.0774 53.8487 57.136 53.9683 57.1597 54.0985C57.1834 54.2287 57.1712 54.3637 57.1247 54.4863C57.0782 54.6089 56.9994 54.7138 56.8984 54.7875C56.7973 54.8613 56.6785 54.9006 56.557 54.9006C56.4897 54.9006 56.4251 54.9298 56.3775 54.9819C56.3299 55.0339 56.3031 55.1044 56.3031 55.178V55.7715C56.3031 55.845 56.3299 55.9156 56.3775 55.9676C56.4251 56.0196 56.4897 56.0488 56.557 56.0488C56.6244 56.0488 56.6889 56.0196 56.7366 55.9676C56.7842 55.9156 56.8109 55.845 56.8109 55.7715V55.422C57.0148 55.3689 57.201 55.2543 57.348 55.0911C57.4951 54.9279 57.5972 54.7229 57.6426 54.4993C57.688 54.2758 57.6749 54.0428 57.6048 53.827C57.5348 53.6112 57.4105 53.4213 57.2463 53.279C57.0821 53.1367 56.8845 53.0477 56.6762 53.0222C56.4678 52.9968 56.2572 53.0358 56.0682 53.135C55.8792 53.2341 55.7196 53.3893 55.6076 53.5829C55.4956 53.7764 55.4357 54.0005 55.4348 54.2295C55.4348 54.303 55.4615 54.3736 55.5091 54.4256C55.5567 54.4776 55.6213 54.5068 55.6887 54.5068Z" fill="black"/>
<path d="M56.5589 56.293C56.5144 56.293 56.471 56.3073 56.434 56.3341C56.397 56.3609 56.3682 56.399 56.3512 56.4436C56.3341 56.4882 56.3297 56.5373 56.3384 56.5846C56.347 56.632 56.3685 56.6755 56.3999 56.7096C56.4314 56.7437 56.4714 56.767 56.515 56.7764C56.5587 56.7858 56.6039 56.781 56.645 56.7625C56.6861 56.744 56.7212 56.7128 56.7459 56.6726C56.7706 56.6325 56.7838 56.5853 56.7838 56.537C56.7838 56.4723 56.7601 56.4102 56.7179 56.3645C56.6757 56.3187 56.6186 56.293 56.5589 56.293Z" fill="black"/>
<path d="M42.7197 46.5081C42.8826 46.5081 43.0419 46.4553 43.1773 46.3563C43.3127 46.2573 43.4181 46.1166 43.4802 45.9521C43.5423 45.7876 43.5583 45.6066 43.5262 45.4322C43.494 45.2577 43.4152 45.0976 43.2996 44.9722C43.184 44.8467 43.037 44.7616 42.8771 44.7275C42.7171 44.6935 42.5516 44.7121 42.4014 44.7809C42.2511 44.8498 42.123 44.9658 42.0332 45.1143C41.9434 45.2628 41.896 45.4371 41.897 45.6151C41.897 45.7328 41.9184 45.8494 41.9598 45.9581C42.0012 46.0668 42.0618 46.1655 42.1383 46.2485C42.2148 46.3315 42.3055 46.3972 42.4053 46.4417C42.5051 46.4863 42.6119 46.5089 42.7197 46.5081ZM42.7197 45.2712C42.782 45.2712 42.8428 45.2913 42.8946 45.3291C42.9464 45.3669 42.9868 45.4206 43.0106 45.4835C43.0344 45.5463 43.0406 45.6155 43.0285 45.6822C43.0164 45.7489 42.9864 45.8102 42.9423 45.8583C42.8983 45.9064 42.8422 45.9391 42.7811 45.9524C42.7201 45.9656 42.6568 45.9588 42.5992 45.9328C42.5417 45.9068 42.4925 45.8627 42.4579 45.8061C42.4233 45.7496 42.4049 45.6831 42.4049 45.6151C42.4049 45.5239 42.438 45.4364 42.4971 45.3719C42.5561 45.3074 42.6362 45.2712 42.7197 45.2712Z" fill="black"/>
<path d="M45.5732 46.5081C45.7361 46.5081 45.8954 46.4553 46.0308 46.3563C46.1662 46.2573 46.2716 46.1166 46.3337 45.9521C46.3958 45.7876 46.4118 45.6066 46.3797 45.4322C46.3475 45.2577 46.2687 45.0976 46.1531 44.9722C46.0375 44.8467 45.8905 44.7616 45.7306 44.7275C45.5707 44.6935 45.4051 44.7121 45.2549 44.7809C45.1046 44.8498 44.9765 44.9658 44.8867 45.1143C44.797 45.2628 44.7496 45.4371 44.7506 45.6151C44.7519 45.8524 44.8392 46.0796 44.9933 46.2469C45.1474 46.4142 45.3559 46.5081 45.5732 46.5081ZM45.5732 45.2712C45.6355 45.2712 45.6964 45.2913 45.7481 45.3291C45.7999 45.3669 45.8403 45.4206 45.8641 45.4835C45.8879 45.5463 45.8942 45.6155 45.882 45.6822C45.8699 45.7489 45.8399 45.8102 45.7958 45.8583C45.7518 45.9064 45.6957 45.9391 45.6346 45.9524C45.5736 45.9656 45.5103 45.9588 45.4527 45.9328C45.3952 45.9068 45.346 45.8627 45.3114 45.8061C45.2768 45.7496 45.2584 45.6831 45.2584 45.6151C45.2584 45.5239 45.2915 45.4364 45.3506 45.3719C45.4096 45.3074 45.4897 45.2712 45.5732 45.2712Z" fill="black"/>
<path d="M48.4287 46.5081C48.5916 46.5081 48.7509 46.4553 48.8863 46.3563C49.0217 46.2573 49.1271 46.1166 49.1892 45.9521C49.2513 45.7876 49.2673 45.6066 49.2351 45.4322C49.203 45.2577 49.1241 45.0976 49.0086 44.9722C48.893 44.8467 48.746 44.7616 48.586 44.7275C48.4261 44.6935 48.2606 44.7121 48.1103 44.7809C47.9601 44.8498 47.832 44.9658 47.7422 45.1143C47.6524 45.2628 47.605 45.4371 47.606 45.6151C47.6074 45.8524 47.6946 46.0796 47.8488 46.2469C48.0029 46.4142 48.2114 46.5081 48.4287 46.5081ZM48.4287 45.2712C48.491 45.2712 48.5518 45.2913 48.6036 45.3291C48.6554 45.3669 48.6957 45.4206 48.7196 45.4835C48.7434 45.5463 48.7496 45.6155 48.7375 45.6822C48.7253 45.7489 48.6954 45.8102 48.6513 45.8583C48.6073 45.9064 48.5512 45.9391 48.4901 45.9524C48.429 45.9656 48.3657 45.9588 48.3082 45.9328C48.2507 45.9068 48.2015 45.8627 48.1669 45.8061C48.1323 45.7496 48.1138 45.6831 48.1138 45.6151C48.1138 45.5239 48.147 45.4364 48.2061 45.3719C48.2651 45.3074 48.3452 45.2712 48.4287 45.2712Z" fill="black"/>
<defs>
<linearGradient id="paint0_linear_30_91" x1="0.0278017" y1="1.85194e-06" x2="142.787" y2="82.8849" gradientUnits="userSpaceOnUse">
<stop stop-color="#00D7E1"/>
<stop offset="1" stop-color="#2B6EC8"/>
</linearGradient>
</defs>
</svg>
