<svg width="24" height="11" viewBox="0 0 24 11" fill="none" xmlns="http://www.w3.org/2000/svg">
<path d="M21.6699 6.797C22.6649 6.797 23.4714 7.60357 23.4714 8.59852C23.4714 9.59348 22.6649 10.4001 21.6699 10.4001L1.85311 10.4C0.858158 10.4 0.0515879 9.59348 0.051588 8.59852C0.051588 7.60357 0.858158 6.797 1.85311 6.797L21.6699 6.797Z" fill="#0AEC94"/>
<path d="M21.6699 6.797C22.6649 6.797 23.4714 7.60357 23.4714 8.59852C23.4714 9.59348 22.6649 10.4001 21.6699 10.4001L1.85311 10.4C0.858158 10.4 0.0515879 9.59348 0.051588 8.59852C0.051588 7.60357 0.858158 6.797 1.85311 6.797L21.6699 6.797Z" fill="url(#paint0_linear_409_7767)"/>
<path d="M22.6351 7.01531C23.3386 7.71885 23.3386 8.85952 22.6351 9.56306C21.9315 10.2666 20.7909 10.2666 20.0873 9.56306L14.8373 4.31302C14.1337 3.60949 14.1337 2.46882 14.8373 1.76528C15.5408 1.06174 16.6815 1.06174 17.385 1.76528L22.6351 7.01531Z" fill="#0AEC94"/>
<path d="M22.6351 7.01531C23.3386 7.71885 23.3386 8.85952 22.6351 9.56306C21.9315 10.2666 20.7909 10.2666 20.0873 9.56306L14.8373 4.31302C14.1337 3.60949 14.1337 2.46882 14.8373 1.76528C15.5408 1.06174 16.6815 1.06174 17.385 1.76528L22.6351 7.01531Z" fill="url(#paint1_linear_409_7767)"/>
<defs>
<linearGradient id="paint0_linear_409_7767" x1="11.8354" y1="6.74859" x2="11.8345" y2="10.476" gradientUnits="userSpaceOnUse">
<stop stop-color="#FF6802"/>
<stop offset="1" stop-color="#EE0E72"/>
</linearGradient>
<linearGradient id="paint1_linear_409_7767" x1="20.0689" y1="4.38068" x2="17.4317" y2="7.01491" gradientUnits="userSpaceOnUse">
<stop stop-color="#FF6802"/>
<stop offset="1" stop-color="#EE0E72"/>
</linearGradient>
</defs>
</svg>
