<svg width="45" height="50" viewBox="0 0 45 50" fill="none" xmlns="http://www.w3.org/2000/svg">
<path d="M43.6619 11.8123L39.7815 9.56675C39.3027 9.28959 38.7077 9.28949 38.2287 9.56675L34.3484 11.8123C34.3297 11.8231 34.3119 11.8349 34.2939 11.8464L27.7623 8.06641V3.79527C27.7623 3.24691 27.4655 2.72961 26.9885 2.45362L23.108 0.207746C22.6291 -0.0692162 22.0342 -0.0693138 21.5553 0.207844L17.6749 2.45352C17.1975 2.7299 16.9012 3.24759 16.9012 3.79517V8.06641L10.3696 11.8463C10.3516 11.8348 10.3338 11.8231 10.3151 11.8123L6.43463 9.56665C5.95571 9.28969 5.36077 9.28959 4.88184 9.56675L1.00154 11.8123C0.526719 12.0871 0.227783 12.6037 0.227783 13.154V17.6486C0.227783 18.1999 0.524277 18.714 1.00154 18.9902L4.88184 21.2359C4.8963 21.2443 4.91114 21.2515 4.92579 21.2594V28.7404C4.91114 28.7482 4.8963 28.7556 4.88184 28.764L1.00173 31.0096C0.52711 31.2841 0.227783 31.8006 0.227783 32.3513V36.8459C0.227783 37.3973 0.524277 37.9113 1.00154 38.1875L4.88184 40.4331C5.36262 40.7113 5.95776 40.7091 6.43473 40.4331L10.3151 38.1875C10.4038 38.1362 10.4862 38.0765 10.5617 38.01L16.9022 41.6792C16.902 41.6895 16.9012 41.6998 16.9012 41.71V46.2046C16.9012 46.756 17.1977 47.2701 17.6749 47.5462L21.5553 49.792C22.0343 50.069 22.6293 50.069 23.1081 49.7919L26.9884 47.5462C27.4657 47.2701 27.7622 46.7559 27.7622 46.2046V41.71C27.7622 41.6998 27.7614 41.6895 27.7612 41.6792L34.1017 38.01C34.1772 38.0765 34.2596 38.1362 34.3484 38.1875L38.2288 40.4332C38.7088 40.7108 39.3037 40.7096 39.7815 40.4331L43.6618 38.1875C44.1391 37.9113 44.4356 37.3972 44.4356 36.8459V32.3513C44.4356 31.8032 44.1384 31.2851 43.6618 31.0097L39.7815 28.764C39.7671 28.7556 39.7522 28.7483 39.7376 28.7404V21.2595C39.7522 21.2517 39.7671 21.2444 39.7815 21.236L43.6618 18.9903C44.1391 18.7141 44.4356 18.1999 44.4356 17.6487V13.1541C44.4357 12.6127 44.1451 12.0919 43.6619 11.8123ZM35.0396 13.9705L38.2287 15.8162L38.2288 15.8163C38.2432 15.8247 38.258 15.8319 38.2727 15.8398V19.5691L35.0821 17.7226C35.0558 17.7074 35.0395 17.6791 35.0395 17.6488V13.9705H35.0396ZM27.2352 9.45395L33.5758 13.1233C33.5756 13.1336 33.5748 13.1437 33.5748 13.154V17.6486C33.5748 17.6589 33.5756 17.6691 33.5758 17.6794L29.7205 19.9105C29.6271 19.8333 29.5427 19.774 29.446 19.7182L23.3428 16.1861C23.2529 16.1341 23.1595 16.0904 23.0641 16.0534V11.9007C23.0787 11.8928 23.0937 11.8855 23.1081 11.8772L26.9884 9.63159C27.0772 9.58013 27.1597 9.52046 27.2352 9.45395ZM28.2829 20.7376L22.609 24.0212C22.4381 24.1203 22.2257 24.1204 22.0544 24.0212L16.3805 20.7376L22.0544 17.454C22.2257 17.355 22.4381 17.3551 22.609 17.454L28.2829 20.7376ZM26.2973 8.28985C26.2973 8.32022 26.281 8.34845 26.2546 8.36368L23.064 10.2101V6.48081C23.0786 6.4729 23.0936 6.46557 23.108 6.45727L26.2972 4.6117V8.28985H26.2973ZM22.2889 1.47585C22.3021 1.46824 22.3169 1.46443 22.3316 1.46443C22.3464 1.46443 22.3611 1.46814 22.3743 1.47576L25.5828 3.33265L22.3744 5.18936C22.348 5.20459 22.3151 5.20459 22.2889 5.18936L22.289 5.18946L19.0805 3.33265L22.2889 1.47585ZM18.366 4.6116L21.5552 6.45717C21.5553 6.45717 21.5553 6.45727 21.5553 6.45727C21.5697 6.46557 21.5845 6.4729 21.5991 6.48071V10.21L18.4086 8.36368C18.3822 8.34845 18.3659 8.32022 18.3659 8.28985V4.6116H18.366ZM11.0876 13.1233L17.4282 9.45395C17.5037 9.52046 17.5861 9.58013 17.6748 9.6315L21.5553 11.8772C21.5697 11.8855 21.5845 11.8928 21.5991 11.9006V16.0534C21.5038 16.0904 21.4104 16.1341 21.3205 16.1861L15.2172 19.7182C15.1227 19.7729 15.037 19.8327 14.9428 19.9105L11.0875 17.6794C11.0877 17.6692 11.0885 17.6589 11.0885 17.6486V13.154C11.0887 13.1437 11.0878 13.1336 11.0876 13.1233ZM5.61556 10.8347C5.62874 10.827 5.64349 10.8232 5.65824 10.8232C5.67298 10.8232 5.68783 10.827 5.70101 10.8347L8.90952 12.6915L5.70111 14.5483C5.67474 14.5635 5.64203 14.5636 5.61566 14.5484L2.40705 12.6914L5.61556 10.8347ZM9.6238 13.9705V17.6488C9.6238 17.6791 9.60749 17.7074 9.58122 17.7226L6.39059 19.5689V15.8396C6.40524 15.8317 6.42018 15.8244 6.43463 15.8161L9.6238 13.9705ZM1.73516 17.7225C1.70879 17.7073 1.69248 17.679 1.69248 17.6487V13.9704L4.88165 15.8161C4.8961 15.8245 4.91095 15.8317 4.9256 15.8396V19.5689L1.73516 17.7225ZM4.92569 38.7663L1.73516 36.9199C1.70879 36.9047 1.69248 36.8764 1.69248 36.8461V33.1677L4.88165 35.0134C4.8961 35.0218 4.91095 35.029 4.9256 35.0369L4.92569 38.7663ZM5.61556 33.7455L2.40705 31.8888L5.61556 30.0319C5.62874 30.0243 5.64349 30.0205 5.65824 30.0205C5.67298 30.0205 5.68783 30.0243 5.70101 30.0319L8.90932 31.8887L5.70111 33.7455C5.67464 33.7607 5.64183 33.7607 5.61556 33.7455ZM9.6238 36.846C9.6238 36.8764 9.60749 36.9047 9.58122 36.9198L6.39059 38.7663V35.0369C6.40524 35.029 6.42018 35.0217 6.43463 35.0134L9.6237 33.1677L9.6238 36.846ZM10.3695 31.0436C10.3515 31.0321 10.3336 31.0204 10.3149 31.0096L10.315 31.0097L6.43463 28.7639C6.42018 28.7555 6.40533 28.7482 6.39068 28.7403V21.2595C6.40533 21.2516 6.42027 21.2443 6.43473 21.236L10.3151 18.9903C10.3337 18.9796 10.3515 18.9678 10.3695 18.9563L14.2292 21.19C14.2166 21.2806 14.2099 21.3725 14.2099 21.4653V28.5348C14.2099 28.6275 14.2166 28.7194 14.2292 28.8101L10.3695 31.0436ZM17.6204 40.4025L11.0887 36.6225V32.3514C11.0887 32.341 11.0879 32.3309 11.0877 32.3205L14.943 30.0894C15.0285 30.1603 15.1197 30.2252 15.2173 30.2818L16.0968 30.7907C16.2124 30.8576 16.3385 30.8893 16.463 30.8893C16.7158 30.8893 16.9618 30.7582 17.0976 30.5237C17.3002 30.1735 17.1807 29.7254 16.8306 29.5229L15.9512 29.014C15.7806 28.9152 15.6748 28.7316 15.6748 28.5348V22.0219L21.3207 25.2891C21.4106 25.3412 21.504 25.3849 21.5993 25.4219V32.2826L19.7891 31.235C19.4394 31.0326 18.9908 31.1518 18.7883 31.502C18.5856 31.8522 18.7052 32.3003 19.0553 32.5029L21.3207 33.8139C21.4106 33.866 21.504 33.9096 21.5993 33.9467V38.0994C21.5846 38.1073 21.5698 38.1146 21.5553 38.123L17.675 40.3686C17.6563 40.3793 17.6384 40.391 17.6204 40.4025ZM21.5992 48.1251L18.4087 46.2786C18.3823 46.2634 18.366 46.2352 18.366 46.2048V42.5265L21.5552 44.3721C21.5696 44.3805 21.5845 44.3877 21.5991 44.3956L21.5992 48.1251ZM22.289 43.1043L19.0805 41.2475L22.2889 39.3908C22.3152 39.3756 22.3481 39.3756 22.3743 39.3907L25.5828 41.2475L22.3743 43.1043C22.3481 43.1195 22.3153 43.1196 22.289 43.1043ZM26.2973 46.2048C26.2973 46.2352 26.281 46.2634 26.2546 46.2786L23.064 48.1251V44.3956C23.0786 44.3877 23.0936 44.3804 23.108 44.3721L26.2972 42.5265V46.2048H26.2973ZM33.5747 32.3514V36.6225L27.043 40.4025C27.025 40.391 27.0072 40.3793 26.9885 40.3686L23.1081 38.1229C23.0937 38.1145 23.0788 38.1072 23.0642 38.0993V33.9467C23.1595 33.9096 23.253 33.866 23.3429 33.8139L29.4461 30.2819C29.5439 30.2253 29.635 30.1603 29.7206 30.0895L33.5759 32.3206C33.5755 32.3309 33.5747 32.341 33.5747 32.3514ZM34.2939 31.0436L30.4342 28.81C30.4468 28.7193 30.4535 28.6274 30.4535 28.5347V27.1604C30.4535 26.7558 30.1257 26.428 29.7211 26.428C29.3164 26.428 28.9886 26.7558 28.9886 27.1604V28.5347C28.9886 28.7316 28.8827 28.9151 28.7122 29.0139L23.0641 32.2825V25.4218C23.1594 25.3848 23.2529 25.3411 23.3428 25.289L28.9887 22.0218V23.7423C28.9887 24.1469 29.3165 24.4748 29.7211 24.4748C30.1258 24.4748 30.4536 24.1469 30.4536 23.7423V21.4653C30.4536 21.3725 30.4469 21.2806 30.4343 21.19L34.294 18.9563C34.312 18.9677 34.3298 18.9796 34.3484 18.9903L38.2288 21.2361C38.2432 21.2445 38.258 21.2517 38.2727 21.2596V28.7404C38.258 28.7483 38.2431 28.7556 38.2287 28.764L34.3485 31.0096C34.3299 31.0204 34.312 31.0322 34.2939 31.0436ZM38.2727 38.7663L35.0821 36.9198C35.0558 36.9047 35.0395 36.8764 35.0395 36.846V33.1677L38.2286 35.0134L38.2287 35.0135C38.2431 35.0219 38.258 35.0291 38.2726 35.037L38.2727 38.7663ZM42.9708 36.846C42.9708 36.8764 42.9545 36.9046 42.9281 36.9198L39.7376 38.7662V35.0368C39.7522 35.029 39.7671 35.0217 39.7815 35.0133L42.9707 33.1676V36.846H42.9708ZM42.2562 31.8888L39.0477 33.7456C39.0214 33.7608 38.9886 33.7607 38.9623 33.7455L38.9624 33.7456L35.7541 31.8887L38.9623 30.032C38.9886 30.0167 39.0214 30.0166 39.0477 30.0319L42.2562 31.8888ZM39.0478 14.5483C39.0215 14.5635 38.9887 14.5634 38.9624 14.5482L38.9625 14.5483L35.754 12.6914L38.9624 10.8347C38.9756 10.827 38.9904 10.8232 39.0051 10.8232C39.0199 10.8232 39.0346 10.8269 39.0478 10.8346L42.2563 12.6914L39.0478 14.5483ZM42.9708 17.6487C42.9708 17.679 42.9545 17.7073 42.9281 17.7225L39.7376 19.5689V15.8396C39.7522 15.8318 39.7671 15.8245 39.7815 15.8161L42.9707 13.9704V17.6487H42.9708Z" fill="white"/>
</svg>
