<svg width="51" height="48" viewBox="0 0 51 48" fill="none" xmlns="http://www.w3.org/2000/svg">
<path d="M48.4586 32.1578H48.093C47.9015 31.5375 47.6533 30.9387 47.3506 30.3664L47.6115 30.1046C48.0282 29.6904 48.2582 29.1374 48.2591 28.5474C48.26 27.956 48.0308 27.4007 47.6136 26.9836L47.1052 26.4755V5.49893C47.1052 2.56152 45.0323 0.171875 42.4843 0.171875H5.2874C2.73936 0.171875 0.666504 2.56152 0.666504 5.49893V33.0236C0.666504 35.961 2.73936 38.3507 5.2874 38.3507H11.0653C11.6092 38.3507 12.0501 37.9098 12.0501 37.3659C12.0501 36.8221 11.6092 36.3812 11.0653 36.3812H5.2874C3.85029 36.3812 2.63613 34.8436 2.63613 33.0237V15.1571H45.1354V25.1088C45.0232 25.0915 44.9096 25.0802 44.7938 25.0802C44.7927 25.0802 44.7915 25.0802 44.7904 25.0802C44.2004 25.0812 43.6474 25.3108 43.2364 25.724L42.9702 25.9891C42.3859 25.6804 41.7774 25.4293 41.15 25.2376V24.8868C41.15 23.6696 40.1596 22.6795 38.9421 22.6795H37.16C35.944 22.6795 34.9549 23.6696 34.9549 24.8868V25.2616C34.3393 25.4551 33.7448 25.704 33.1767 26.0063L32.9216 25.7521C32.5073 25.3357 31.9542 25.1059 31.3642 25.105C31.3631 25.105 31.362 25.105 31.3608 25.105C30.7707 25.105 30.2166 25.334 29.8003 25.75L28.5412 27.0085C28.124 27.4255 27.8948 27.9809 27.8957 28.5722C27.8966 29.1622 28.1265 29.7152 28.54 30.1262L28.812 30.3989C28.5168 30.9624 28.2743 31.5502 28.0867 32.1576H27.7127C26.4967 32.1576 25.5075 33.1465 25.5075 34.3621V36.146C25.5075 36.2253 25.5119 36.3036 25.5201 36.3808H19.7901C19.2463 36.3808 18.8054 36.8217 18.8054 37.3655C18.8054 37.9094 19.2463 38.3503 19.7901 38.3503H27.7126H28.0904C28.2809 38.9635 28.5271 39.556 28.8273 40.1231L28.5612 40.3881C27.7045 41.2494 27.7053 42.6478 28.5633 43.5051L29.823 44.7644C30.2373 45.1807 30.7904 45.4105 31.3805 45.4114H31.3837C31.9739 45.4114 32.528 45.1824 32.9443 44.7663L33.2081 44.5027C33.7804 44.8044 34.3754 45.0509 34.9879 45.2402V45.6214C34.9879 46.8386 35.9771 47.8287 37.1931 47.8287H38.9779C40.1938 47.8287 41.183 46.8386 41.183 45.6214V45.2426C41.8013 45.0519 42.3987 44.8044 42.9703 44.5026L43.2329 44.7643C43.6471 45.1807 44.2001 45.4104 44.7901 45.4114H44.7936C45.3837 45.4114 45.9378 45.1824 46.3549 44.7656L47.6112 43.5071C48.0279 43.093 48.2579 42.5399 48.2588 41.9499C48.2597 41.3585 48.0305 40.8032 47.6132 40.3861L47.3504 40.1234C47.6501 39.5558 47.8961 38.9629 48.0862 38.3504H48.4584C49.6759 38.3504 50.6663 37.3615 50.6663 36.146V34.3621C50.6665 33.1467 49.6761 32.1578 48.4586 32.1578ZM2.63613 13.1875V5.49893C2.63613 3.6791 3.85029 2.1415 5.2874 2.1415H42.4843C43.9214 2.1415 45.1355 3.6791 45.1355 5.49893V13.1876L2.63613 13.1875ZM48.6969 36.1462C48.6969 36.2713 48.5855 36.381 48.4585 36.381H47.3323C46.8731 36.381 46.4749 36.6982 46.3724 37.1458C46.1597 38.074 45.7943 38.9543 45.2864 39.7624C45.0418 40.1516 45.0989 40.6582 45.4241 40.9831L46.221 41.7795C46.2806 41.8391 46.2894 41.9102 46.2894 41.9473C46.2893 41.9916 46.2777 42.056 46.2202 42.113L44.962 43.3734C44.9023 43.433 44.8312 43.442 44.7937 43.442C44.7936 43.442 44.7935 43.442 44.7935 43.442C44.7487 43.442 44.6842 43.4304 44.6265 43.3723L43.8267 42.5758C43.5014 42.2519 42.9957 42.1957 42.6073 42.4398C41.798 42.9489 40.9141 43.3148 39.9798 43.5274C39.5316 43.6296 39.2136 44.028 39.2136 44.4878V45.6217C39.2136 45.7482 39.1035 45.8594 38.9781 45.8594H37.1933C37.0678 45.8594 36.9577 45.7483 36.9577 45.6217V44.485C36.9577 44.0248 36.639 43.6259 36.1901 43.5244C35.2678 43.3158 34.3854 42.9505 33.5676 42.4388C33.4064 42.3379 33.2254 42.2887 33.0454 42.2887C32.791 42.2887 32.5389 42.387 32.3489 42.577L31.5521 43.3734C31.4925 43.433 31.4213 43.442 31.3838 43.442C31.3837 43.442 31.3836 43.442 31.3835 43.442C31.3389 43.442 31.2742 43.4304 31.2177 43.3735L29.9559 42.1123C29.8675 42.024 29.8685 41.8676 29.9547 41.7809L30.7544 40.9844C31.0812 40.659 31.1383 40.1506 30.8921 39.7607C30.3834 38.9553 30.0176 38.0756 29.8047 37.1461C29.7021 36.6985 29.3039 36.3812 28.8446 36.3812H27.7128C27.5852 36.3812 27.4772 36.2736 27.4772 36.1464V34.3625C27.4772 34.2353 27.5852 34.1276 27.7128 34.1276H28.8418C29.3015 34.1276 29.7001 33.8096 29.8021 33.3614C30.0123 32.4379 30.3734 31.5618 30.8755 30.7573C31.1179 30.3689 31.0606 29.8647 30.7373 29.5405L29.9316 28.7325C29.877 28.6782 29.8654 28.6139 29.8653 28.5695C29.8653 28.5324 29.8741 28.4613 29.9337 28.4019L31.1927 27.1435C31.2523 27.0839 31.3235 27.0749 31.361 27.0749H31.3613C31.406 27.075 31.4706 27.0865 31.5283 27.1446L32.3225 27.9356C32.6487 28.2605 33.1562 28.3162 33.5447 28.0697C34.3494 27.5596 35.2308 27.19 36.1642 26.9716C36.6095 26.8674 36.9244 26.4701 36.9244 26.0127V24.8871C36.9244 24.7583 37.0322 24.6494 37.1599 24.6494H38.942C39.0712 24.6494 39.1804 24.7583 39.1804 24.8871V25.9961C39.1804 26.4575 39.5007 26.857 39.9512 26.9573C40.8882 27.166 41.7821 27.5346 42.6082 28.0528C42.9964 28.2962 43.5016 28.2399 43.8266 27.9163L44.6296 27.1165C44.6841 27.0617 44.7486 27.0502 44.7933 27.0501H44.7936C44.8311 27.0501 44.9022 27.0591 44.9618 27.1187L46.2209 28.377C46.2805 28.4365 46.2893 28.5076 46.2893 28.5447C46.2892 28.5891 46.2776 28.6534 46.2197 28.7109L45.4228 29.5103C45.0982 29.8357 45.042 30.3424 45.2872 30.7311C45.7971 31.5394 46.1639 32.4245 46.3775 33.3618C46.4797 33.8099 46.8781 34.1277 47.3378 34.1277H48.4585C48.5854 34.1277 48.6969 34.2376 48.6969 34.3626V36.1462Z" fill="white"/>
</svg>
