<svg width="56" height="55" viewBox="0 0 56 55" fill="none" xmlns="http://www.w3.org/2000/svg">
<rect x="0.666626" width="55" height="55" rx="27.5" fill="white"/>
<g clip-path="url(#clip0_30_321)">
<path fill-rule="evenodd" clip-rule="evenodd" d="M25.567 17.6369C25.5716 17.6357 25.576 17.6351 25.5804 17.6339C27.2981 17.2145 29.0915 17.2145 30.8092 17.6339C30.8136 17.6351 30.818 17.6357 30.8226 17.6369C34.0357 18.3331 34.0087 20.3357 33.9713 23.1081C33.9691 23.2725 33.9668 23.4409 33.9654 23.6098C33.764 23.6499 33.5552 23.6277 33.3668 23.5461C33.1784 23.4645 33.0193 23.3275 32.9107 23.1532C32.9013 22.6962 32.897 22.2411 32.8982 21.7991C32.8985 21.6937 32.8658 21.5908 32.8046 21.505C32.7435 21.4192 32.657 21.3546 32.5573 21.3205C32.4577 21.2863 32.3475 21.2581 32.2308 21.2283C31.6077 21.0683 30.6663 20.8274 29.9521 19.3393C29.9175 19.2673 29.8663 19.2046 29.8027 19.1563C29.7392 19.1079 29.6651 19.0754 29.5865 19.0613C29.5079 19.0472 29.427 19.0519 29.3506 19.0751C29.2742 19.0983 29.2044 19.1393 29.1469 19.1948C28.4834 19.8333 27.6792 20.3071 26.799 20.5777C25.9188 20.8484 24.9873 20.9084 24.0796 20.753C24.0068 20.7403 23.932 20.7438 23.8606 20.7632C23.7892 20.7826 23.7229 20.8175 23.6666 20.8655C23.6102 20.9134 23.5651 20.9731 23.5344 21.0405C23.5037 21.1078 23.4882 21.1811 23.4891 21.255C23.4952 21.8853 23.4918 22.5236 23.4788 23.1535C23.3702 23.3277 23.2111 23.4648 23.0227 23.5464C22.8342 23.6279 22.6254 23.6501 22.4241 23.61C22.4227 23.4411 22.4203 23.2728 22.4182 23.1083C22.3809 20.3359 22.3538 18.3334 25.567 17.6371L25.567 17.6369ZM21.8644 27.5552C21.7056 27.555 21.5534 27.4919 21.4411 27.3796C21.3288 27.2672 21.2656 27.115 21.2655 26.9562V25.1416C21.2658 24.9828 21.329 24.8307 21.4412 24.7185C21.5535 24.6063 21.7057 24.5433 21.8644 24.5431C21.9004 24.543 21.9362 24.5391 21.9713 24.5314C22.1816 24.6017 22.4018 24.6375 22.6235 24.6373V27.0807C22.6235 27.241 22.6307 27.3992 22.6439 27.5557L21.8644 27.5552ZM33.7941 36.0854L32.9492 42.476H23.2226L22.3777 36.0854H33.7941ZM18.9043 37.0901L18.8769 42.476H22.205L21.3564 36.0578C21.3402 35.9353 21.3503 35.8109 21.3861 35.6927C21.4219 35.5745 21.4825 35.4653 21.5639 35.3725C21.6453 35.2796 21.7455 35.2052 21.858 35.1542C21.9705 35.1032 22.0925 35.0768 22.216 35.0768H25.4509L24.7369 33.8405C24.0761 34.0383 23.2198 34.2882 22.1295 34.582C20.4738 35.0859 19.4177 35.9071 18.9044 37.0902L18.9043 37.0901ZM37.4282 37.0901C36.9149 35.907 35.8588 35.0862 34.2029 34.582C33.1096 34.2872 32.2546 34.0377 31.5955 33.8405L30.8814 35.0768H33.956C34.0795 35.0768 34.2015 35.1032 34.314 35.1541C34.4265 35.2051 34.5267 35.2795 34.6081 35.3724C34.6895 35.4653 34.7501 35.5744 34.7859 35.6926C34.8217 35.8108 34.8319 35.9353 34.8157 36.0577L33.967 42.476H37.4555L37.4281 37.0901H37.4282ZM30.6495 33.4077C30.6509 33.4223 30.653 33.437 30.6553 33.4505L29.7167 35.0768H26.615C26.6129 35.073 26.611 35.0685 26.6087 35.0641L25.5393 33.2125C25.5669 32.8916 25.5968 32.4936 25.629 32.0252C26.3854 32.4181 27.222 32.6321 28.0743 32.6505C28.9265 32.669 29.7716 32.4915 30.5443 32.1317C30.5749 32.5448 30.6096 32.9665 30.6495 33.4079V33.4077ZM28.1948 31.6425C29.4044 31.6412 30.5642 31.1601 31.4195 30.3047C32.2749 29.4493 32.756 28.2896 32.7573 27.08V24.3652C32.4125 24.1654 32.1341 23.8685 31.9569 23.5116C31.9243 23.4457 31.9065 23.3734 31.9048 23.2998C31.8963 22.9245 31.8912 22.5498 31.8898 22.1824C31.2492 22.0152 30.2003 21.6943 29.3576 20.3505C27.9847 21.4406 26.2481 21.967 24.501 21.8228C24.5013 22.3159 24.4959 22.8112 24.4847 23.2998C24.4831 23.3734 24.4653 23.4457 24.4327 23.5116C24.2555 23.8686 23.9771 24.1654 23.6323 24.3652V27.0801C23.6323 27.7844 23.7956 28.479 24.1092 29.1095C24.4229 29.74 24.8784 30.2893 25.4401 30.7141C25.4673 30.7304 25.4929 30.7495 25.5162 30.771C26.294 31.3383 27.2321 31.6436 28.1948 31.6425ZM35.067 26.9559C35.0669 27.1147 35.0037 27.267 34.8914 27.3793C34.7791 27.4916 34.6269 27.5548 34.4681 27.555H33.7456C33.7589 27.3985 33.7661 27.2403 33.7661 27.08V24.6377H33.7679C33.9818 24.6376 34.1944 24.6038 34.3978 24.5375C34.4211 24.5409 34.4445 24.5429 34.4681 24.5433C34.6268 24.5435 34.779 24.6066 34.8912 24.7187C35.0035 24.8309 35.0667 24.983 35.067 25.1417V26.9563V26.9559ZM28.0862 40.5672C28.3734 40.5672 28.6541 40.482 28.8929 40.3225C29.1316 40.1629 29.3177 39.9361 29.4276 39.6708C29.5375 39.4054 29.5662 39.1135 29.5102 38.8318C29.4541 38.5501 29.3158 38.2914 29.1128 38.0883C28.9097 37.8853 28.6509 37.747 28.3693 37.691C28.0876 37.635 27.7956 37.6638 27.5303 37.7737C27.265 37.8836 27.0382 38.0697 26.8787 38.3085C26.7191 38.5473 26.634 38.828 26.634 39.1152C26.6344 39.5002 26.7876 39.8693 27.0598 40.1415C27.3321 40.4138 27.7012 40.5669 28.0862 40.5672ZM28.0862 38.672C27.9985 38.672 27.9128 38.698 27.8399 38.7467C27.767 38.7954 27.7102 38.8646 27.6767 38.9456C27.6432 39.0266 27.6344 39.1157 27.6515 39.2017C27.6686 39.2877 27.7108 39.3666 27.7728 39.4286C27.8348 39.4906 27.9137 39.5328 27.9997 39.5499C28.0857 39.567 28.1748 39.5582 28.2558 39.5247C28.3368 39.4912 28.406 39.4344 28.4547 39.3615C28.5034 39.2886 28.5294 39.2029 28.5294 39.1152C28.5293 38.9977 28.4825 38.885 28.3995 38.8019C28.3164 38.7189 28.2037 38.6721 28.0862 38.672ZM42.3161 12.5239H35.3445C35.1191 12.5242 34.903 12.6138 34.7437 12.7732C34.5843 12.9326 34.4946 13.1487 34.4944 13.3741V18.7923C34.4946 19.0177 34.5842 19.2338 34.7436 19.3932C34.903 19.5526 35.1191 19.6423 35.3445 19.6425H36.1801V21.0084C36.1799 21.0907 36.2015 21.1716 36.2426 21.2429C36.2837 21.3143 36.3429 21.3735 36.4143 21.4146C36.4856 21.4557 36.5665 21.4773 36.6488 21.4772C36.7312 21.4771 36.812 21.4552 36.8832 21.4138L39.9515 19.6425H42.3161C42.5415 19.6423 42.7576 19.5526 42.917 19.3932C43.0764 19.2338 43.166 19.0177 43.1663 18.7923V13.3741C43.166 13.1487 43.0763 12.9326 42.9169 12.7733C42.7576 12.6139 42.5415 12.5242 42.3161 12.5239ZM37.3446 17.9341C37.2734 17.893 37.2142 17.8338 37.173 17.7626C37.1319 17.6914 37.1102 17.6106 37.1102 17.5283V14.6386C37.1102 14.5563 37.1319 14.4755 37.173 14.4042C37.2142 14.333 37.2733 14.2738 37.3446 14.2326C37.4159 14.1915 37.4967 14.1698 37.579 14.1698C37.6613 14.1698 37.7421 14.1915 37.8134 14.2326L40.3161 15.6776C40.3873 15.7187 40.4465 15.7778 40.4877 15.849C40.5288 15.9202 40.5505 16.0011 40.5505 16.0833C40.5505 16.1656 40.5288 16.2464 40.4877 16.3176C40.4465 16.3889 40.3873 16.448 40.3161 16.4891L37.8134 17.9341C37.7422 17.9753 37.6613 17.9971 37.579 17.9971C37.4967 17.9971 37.4158 17.9753 37.3446 17.9341ZM38.0477 15.4501L39.1441 16.0836L38.0477 16.7164V15.4501ZM17.1341 18.4179C17.2221 18.5057 17.3413 18.555 17.4656 18.555C17.5899 18.555 17.7091 18.5057 17.797 18.4179C17.8921 18.3231 18.0295 18.1982 18.1885 18.0546C19.1651 17.1699 20.0418 16.3067 20.0418 15.4679C20.0417 15.1643 19.9605 14.8662 19.8066 14.6045C19.6527 14.3429 19.4317 14.1271 19.1664 13.9795C18.9011 13.8319 18.6012 13.7579 18.2977 13.7651C17.9942 13.7723 17.6982 13.8605 17.4402 14.0206C17.1806 13.8864 16.8909 13.8213 16.5988 13.8314C16.3068 13.8416 16.0223 13.9268 15.7726 14.0787C15.523 14.2307 15.3167 14.4443 15.1735 14.699C15.0304 14.9538 14.9551 15.2411 14.9551 15.5333C14.9551 16.4485 15.9769 17.3673 16.7231 18.0382C16.8883 18.1864 17.031 18.3146 17.1341 18.4178V18.4179ZM15.8926 15.5333C15.8925 15.3868 15.9345 15.2433 16.0136 15.1199C16.0927 14.9965 16.2055 14.8984 16.3387 14.8372C16.4719 14.7761 16.6198 14.7544 16.7649 14.7749C16.91 14.7953 17.0462 14.857 17.1573 14.9526C17.2469 15.0297 17.3624 15.0701 17.4806 15.0657C17.5987 15.0612 17.7109 15.0122 17.7944 14.9286C17.9012 14.8208 18.0377 14.7472 18.1864 14.7171C18.3351 14.6871 18.4895 14.7018 18.6298 14.7596C18.7701 14.8173 18.8901 14.9155 18.9746 15.0415C19.059 15.1676 19.1042 15.3159 19.1042 15.4676C19.1042 15.9602 18.0607 16.9054 17.5593 17.3596C17.527 17.3883 17.4957 17.417 17.4652 17.4444C17.428 17.4112 17.3896 17.3764 17.3498 17.3407C16.8406 16.8828 15.8926 16.0308 15.8926 15.5333ZM16.3783 19.6366H14.0159C13.7906 19.6363 13.5747 19.5467 13.4155 19.3874C13.2562 19.2282 13.1666 19.0123 13.1663 18.7871V13.3736C13.1666 13.1484 13.2562 12.9324 13.4155 12.7732C13.5747 12.6139 13.7906 12.5243 14.0159 12.5239H20.9808C21.2061 12.5243 21.422 12.6139 21.5812 12.7731C21.7405 12.9324 21.8301 13.1483 21.8305 13.3735V18.7871C21.8301 19.0123 21.7405 19.2282 21.5813 19.3875C21.422 19.5467 21.2061 19.6364 20.9808 19.6367H20.1466V21.0002C20.1466 21.0824 20.1249 21.1633 20.0838 21.2346C20.0427 21.3058 19.9835 21.365 19.9122 21.4062C19.841 21.4473 19.7601 21.469 19.6778 21.469C19.5956 21.469 19.5147 21.4473 19.4435 21.4062L16.3783 19.6366Z" fill="black"/>
</g>
<defs>
<clipPath id="clip0_30_321">
<rect width="30" height="30" fill="white" transform="translate(13.1664 12.5)"/>
</clipPath>
</defs>
</svg>
