<svg width="56" height="55" viewBox="0 0 56 55" fill="none" xmlns="http://www.w3.org/2000/svg">
<rect x="0.333374" width="55" height="55" rx="27.5" fill="white"/>
<g clip-path="url(#clip0_30_308)">
<path d="M42.7047 17.6005L37.7359 12.6288C37.6951 12.588 37.6467 12.5556 37.5933 12.5335C37.54 12.5114 37.4828 12.5 37.4251 12.5C37.3674 12.5 37.3102 12.5114 37.2569 12.5335C37.2035 12.5556 37.1551 12.588 37.1143 12.6288L35.8685 13.8716C35.6767 14.0641 35.5689 14.3249 35.5689 14.5967C35.5689 14.8685 35.6767 15.1293 35.8685 15.3218L40.0117 19.4649C40.2042 19.657 40.4649 19.7648 40.7368 19.7648C41.0087 19.7648 41.2695 19.657 41.4619 19.4649L42.7047 18.2222C42.7455 18.1814 42.7779 18.1329 42.8 18.0796C42.8221 18.0262 42.8335 17.9691 42.8335 17.9113C42.8335 17.8536 42.8221 17.7964 42.8 17.7431C42.7779 17.6898 42.7455 17.6413 42.7047 17.6005Z" fill="black"/>
<path d="M35.3862 20.9832C35.4886 20.8807 35.5583 20.7502 35.5866 20.6081C35.6148 20.4661 35.6003 20.3188 35.5449 20.185C35.4894 20.0512 35.3956 19.9368 35.2751 19.8563C35.1547 19.7759 35.0131 19.7329 34.8682 19.7329C34.7234 19.7329 34.5818 19.7759 34.4613 19.8563C34.3409 19.9368 34.247 20.0512 34.1916 20.185C34.1361 20.3188 34.1216 20.4661 34.1499 20.6081C34.1781 20.7502 34.2478 20.8807 34.3503 20.9832C34.4878 21.1203 34.674 21.1973 34.8682 21.1973C35.0624 21.1973 35.2487 21.1203 35.3862 20.9832Z" fill="black"/>
<path d="M35.2472 15.9437C35.1387 15.8347 35.0437 15.7131 34.9642 15.5815L32.3966 16.5688C32.3381 16.5915 32.2851 16.6263 32.2411 16.6711C32.1971 16.7159 32.1633 16.7695 32.1417 16.8284L29.8876 23.003C29.821 23.1866 29.808 23.3854 29.8502 23.576C29.8923 23.7667 29.9878 23.9415 30.1255 24.08L30.3792 24.3331L33.4618 21.2505C33.2737 20.9108 33.2147 20.5145 33.2958 20.1347C33.3769 19.7549 33.5925 19.4172 33.903 19.1839C34.2135 18.9506 34.5978 18.8375 34.9852 18.8653C35.3725 18.8931 35.7367 19.06 36.0107 19.3352C36.2847 19.6105 36.4499 19.9755 36.4759 20.363C36.5018 20.7505 36.3869 21.1343 36.1521 21.4436C35.9174 21.753 35.5787 21.9671 35.1985 22.0464C34.8184 22.1257 34.4223 22.0648 34.0835 21.8751L31.0009 24.9577L31.2546 25.2114C31.4475 25.4036 31.7088 25.5115 31.9812 25.5114C32.1011 25.5116 32.2201 25.4906 32.3327 25.4493L38.5073 23.1952C38.5662 23.1737 38.6199 23.1398 38.6646 23.0958C38.7094 23.0519 38.7443 22.9988 38.7669 22.9403L39.7542 20.3733C39.6226 20.2936 39.501 20.1984 39.3921 20.0897L35.2472 15.9437Z" fill="black"/>
<path d="M20.7439 35.6152C20.7439 35.6541 20.7593 35.6913 20.7868 35.7188C20.8143 35.7463 20.8515 35.7617 20.8904 35.7617H26.7498C26.7886 35.7617 26.8259 35.7463 26.8533 35.7188C26.8808 35.6913 26.8962 35.6541 26.8962 35.6152V34.8828H20.7439V35.6152Z" fill="black"/>
<path d="M25.1882 30.0084L23.8201 27.6904L22.4519 30.0084C22.3967 30.1012 22.3092 30.1704 22.2062 30.2028C22.1032 30.2352 21.9919 30.2286 21.8935 30.1842L19.8064 29.2467L20.6384 32.2461H27.0017L27.8337 29.2502L25.7466 30.1877C25.6478 30.2317 25.5362 30.2377 25.4332 30.2046C25.3302 30.1716 25.243 30.1017 25.1882 30.0084Z" fill="black"/>
<path d="M16.0564 23.75V39.2773H31.5837V26.3445C31.224 26.2678 30.8939 26.0892 30.6328 25.8301L29.5037 24.701C29.2441 24.4402 29.0655 24.1099 28.9892 23.75H16.0564ZM27.7751 35.6152C27.7748 35.8871 27.6667 36.1477 27.4745 36.34C27.2822 36.5322 27.0216 36.6403 26.7498 36.6406H20.8904C20.6185 36.6403 20.3579 36.5322 20.1657 36.34C19.9734 36.1477 19.8653 35.8871 19.865 35.6152V34.4434C19.865 34.3268 19.9113 34.215 19.9937 34.1326C20.0761 34.0502 20.1879 34.0039 20.3044 34.0039H27.3357C27.4522 34.0039 27.564 34.0502 27.6464 34.1326C27.7288 34.215 27.7751 34.3268 27.7751 34.4434V35.6152ZM28.9312 28.584L27.7593 32.8027C27.7335 32.8953 27.6782 32.9769 27.6017 33.0351C27.5252 33.0932 27.4318 33.1248 27.3357 33.125H20.3044C20.2084 33.1249 20.1151 33.0934 20.0386 33.0353C19.9621 32.9772 19.9067 32.8958 19.8808 32.8033L18.7089 28.5846C18.6866 28.5041 18.6876 28.419 18.7118 28.3391C18.7361 28.2593 18.7826 28.1879 18.8459 28.1335C18.9093 28.0791 18.9868 28.0439 19.0694 28.0319C19.152 28.02 19.2363 28.0318 19.3125 28.066L21.8947 29.2232L23.4392 26.6029C23.478 26.5371 23.5334 26.4825 23.5998 26.4446C23.6662 26.4067 23.7413 26.3867 23.8177 26.3867C23.8942 26.3867 23.9693 26.4067 24.0357 26.4446C24.1021 26.4825 24.1574 26.5371 24.1962 26.6029L25.7431 29.2232L28.3253 28.066C28.4015 28.0318 28.4858 28.02 28.5684 28.0319C28.651 28.0439 28.7285 28.0791 28.7919 28.1335C28.8552 28.1879 28.9017 28.2593 28.9259 28.3391C28.9502 28.419 28.9512 28.5041 28.9289 28.5846L28.9312 28.584Z" fill="black"/>
<path d="M32.4626 26.3281V39.7168C32.4626 39.8333 32.4163 39.9451 32.3339 40.0275C32.2515 40.11 32.1397 40.1562 32.0232 40.1562H15.6169C15.5004 40.1562 15.3886 40.11 15.3062 40.0275C15.2238 39.9451 15.1775 39.8333 15.1775 39.7168V23.3105C15.1775 23.194 15.2238 23.0822 15.3062 22.9998C15.3886 22.9174 15.5004 22.8711 15.6169 22.8711H29.0097C29.0244 22.8125 29.0414 22.7574 29.0613 22.7018L29.8552 20.5273H14.4451C14.0179 20.528 13.6084 20.6979 13.3064 21C13.0043 21.302 12.8344 21.7115 12.8337 22.1387V40.8887C12.8344 41.3158 13.0043 41.7253 13.3064 42.0274C13.6084 42.3294 14.0179 42.4994 14.4451 42.5H33.1951C33.6222 42.4994 34.0317 42.3294 34.3338 42.0274C34.6358 41.7253 34.8058 41.3158 34.8064 40.8887V25.4785L32.632 26.2695C32.5763 26.2924 32.5212 26.31 32.4626 26.3281Z" fill="black"/>
</g>
<defs>
<clipPath id="clip0_30_308">
<rect width="30" height="30" fill="white" transform="translate(12.8336 12.5)"/>
</clipPath>
</defs>
</svg>
