<svg width="368" height="325" viewBox="0 0 368 325" fill="none" xmlns="http://www.w3.org/2000/svg">
<g opacity="0.08">
<path fill-rule="evenodd" clip-rule="evenodd" d="M353.656 94.3084C210.423 94.3084 94.3084 210.423 94.3084 353.656C94.3084 496.891 210.423 613.005 353.656 613.005C496.891 613.005 613.005 496.891 613.005 353.656C613.005 210.423 496.891 94.3084 353.656 94.3084ZM0 353.656C0 158.337 158.337 0 353.656 0C548.976 0 707.313 158.337 707.313 353.656C707.313 548.976 548.976 707.313 353.656 707.313C158.337 707.313 0 548.976 0 353.656Z" fill="#1D1D21"/>
<path fill-rule="evenodd" clip-rule="evenodd" d="M353.658 259.346C301.573 259.346 259.349 301.569 259.349 353.654C259.349 405.739 301.573 447.963 353.658 447.963C405.743 447.963 447.966 405.739 447.966 353.654C447.966 301.569 405.743 259.346 353.658 259.346ZM165.041 353.654C165.041 249.484 249.488 165.037 353.658 165.037C457.828 165.037 542.275 249.484 542.275 353.654C542.275 457.824 457.828 542.271 353.658 542.271C249.488 542.271 165.041 457.824 165.041 353.654Z" fill="#1D1D21"/>
</g>
</svg>
